<svg width="340" height="138" viewBox="0 0 340 138" fill="none" xmlns="http://www.w3.org/2000/svg">
<g filter="url(#filter0_d_970_110)">
<g clip-path="url(#clip0_970_110)">
<line x1="119.5" y1="19" x2="119.5" y2="119" stroke="black"/>
<circle cx="68.9762" cy="40" r="7" stroke="black" stroke-width="4"/>
<circle cx="36" cy="97.1195" r="7" stroke="black" stroke-width="4"/>
<circle cx="101.952" cy="97.1195" r="7" stroke="black" stroke-width="4"/>
<circle cx="93.1195" cy="81.8091" r="7" stroke="black" stroke-width="4"/>
<circle cx="44.833" cy="81.8091" r="7" stroke="black" stroke-width="4"/>
<rect x="59.4198" y="37.3206" width="13.9631" height="80.1263" rx="6.98155" transform="rotate(-30 59.4198 37.3206)" stroke="black" stroke-width="4"/>
<rect x="66.4829" y="30.339" width="13.9631" height="80.1263" rx="6.98155" transform="rotate(30 66.4829 30.339)" stroke="black" stroke-width="4"/>
<rect x="38" y="88.75" width="14" height="62" rx="7" transform="rotate(-90 38 88.75)" stroke="black" stroke-width="4"/>
<path fill-rule="evenodd" clip-rule="evenodd" d="M321 20H119V118H321V20ZM138.448 84.56C139.595 85.0933 140.875 85.36 142.288 85.36C143.755 85.36 145.008 85.12 146.048 84.64C147.115 84.1333 148.075 83.4 148.928 82.44L149.128 82.6C148.968 82.8133 148.648 83.16 148.168 83.64V85.36C149.635 85.36 150.701 85.12 151.368 84.64C152.035 84.1333 152.368 83.3333 152.368 82.24V71.88C152.368 69.64 151.608 67.88 150.088 66.6C148.595 65.2933 146.488 64.64 143.768 64.64C142.355 64.64 141.035 64.84 139.808 65.24C138.608 65.6133 137.648 66.1333 136.928 66.8C136.208 67.4667 135.848 68.1867 135.848 68.96C135.848 69.4133 136.021 69.84 136.368 70.24C136.741 70.64 137.195 70.9333 137.728 71.12C138.315 70.16 139.088 69.44 140.048 68.96C141.008 68.4533 142.128 68.2 143.408 68.2C144.848 68.2 145.968 68.5467 146.768 69.24C147.568 69.9067 147.968 70.8267 147.968 72V73.12C148.261 73.3333 148.648 73.68 149.128 74.16L148.928 74.36C147.275 72.7067 145.235 71.88 142.808 71.88C141.288 71.88 139.915 72.16 138.688 72.72C137.461 73.2533 136.488 74.04 135.768 75.08C135.075 76.0933 134.728 77.2933 134.728 78.68C134.728 80.04 135.061 81.2267 135.728 82.24C136.395 83.2533 137.301 84.0267 138.448 84.56ZM146.768 81.12C145.941 81.7067 144.795 82 143.328 82C142.021 82 140.995 81.72 140.248 81.16C139.501 80.5733 139.128 79.7333 139.128 78.64C139.128 77.5733 139.501 76.7467 140.248 76.16C141.021 75.5467 142.061 75.24 143.368 75.24C144.808 75.24 145.941 75.5467 146.768 76.16C147.621 76.7467 148.048 77.5733 148.048 78.64C148.048 79.7067 147.621 80.5333 146.768 81.12ZM160.665 84.44C161.998 85.0533 163.518 85.36 165.225 85.36C166.798 85.36 168.198 85.1333 169.425 84.68C170.678 84.2267 171.638 83.6 172.305 82.8C172.998 81.9733 173.345 81.04 173.345 80C173.345 79.2533 173.051 78.6533 172.465 78.2C171.878 77.72 171.118 77.48 170.185 77.48L169.625 77.52C169.625 78.6667 169.225 79.6133 168.425 80.36C167.625 81.08 166.598 81.44 165.345 81.44C164.065 81.44 163.011 81.1067 162.185 80.44C161.385 79.7733 160.985 78.9067 160.985 77.84V72.4C160.985 71.2533 161.385 70.32 162.185 69.6C162.985 68.88 164.011 68.52 165.265 68.52C166.518 68.52 167.545 68.8933 168.345 69.64C169.145 70.3867 169.545 71.3467 169.545 72.52C170.638 72.6 171.518 72.4133 172.185 71.96C172.878 71.48 173.225 70.8267 173.225 70C173.225 68.96 172.878 68.04 172.185 67.24C171.518 66.4133 170.571 65.7733 169.345 65.32C168.118 64.8667 166.718 64.64 165.145 64.64C163.465 64.64 161.971 64.96 160.665 65.6C159.358 66.24 158.331 67.1333 157.585 68.28C156.865 69.4267 156.505 70.7333 156.505 72.2V78.12C156.505 79.5067 156.865 80.76 157.585 81.88C158.331 82.9733 159.358 83.8267 160.665 84.44ZM181.89 64.64C179.063 64.64 177.65 65.8267 177.65 68.2V85.36C179.143 85.36 180.25 85.1333 180.97 84.68C181.69 84.2267 182.05 83.4933 182.05 82.48V72.76C182.05 71.48 182.383 70.44 183.05 69.64C183.743 68.84 184.663 68.44 185.81 68.44C187.73 68.44 188.69 69.6133 188.69 71.96V85.36C190.156 85.36 191.25 85.1333 191.97 84.68C192.69 84.2267 193.05 83.4933 193.05 82.48V72.64C193.05 71.2533 193.396 70.2133 194.09 69.52C194.81 68.8 195.69 68.44 196.73 68.44C197.716 68.44 198.45 68.76 198.93 69.4C199.41 70.0133 199.65 70.8667 199.65 71.96V85.36C201.143 85.36 202.25 85.1333 202.97 84.68C203.69 84.2267 204.05 83.4933 204.05 82.48V71.6C204.05 69.5733 203.516 67.9067 202.45 66.6C201.41 65.2933 199.97 64.64 198.13 64.64C196.796 64.64 195.623 64.9467 194.61 65.56C193.596 66.1467 192.743 66.9867 192.05 68.08C191.116 65.7867 189.49 64.64 187.17 64.64C185.89 64.64 184.783 64.9733 183.85 65.64C182.916 66.28 182.023 67.2267 181.17 68.48L180.97 68.32C181.156 67.9733 181.463 67.56 181.89 67.08V64.64ZM211.783 84.56C212.929 85.0933 214.209 85.36 215.623 85.36C217.089 85.36 218.342 85.12 219.382 84.64C220.449 84.1333 221.409 83.4 222.263 82.44L222.463 82.6C222.303 82.8133 221.983 83.16 221.503 83.64V85.36C222.969 85.36 224.036 85.12 224.702 84.64C225.369 84.1333 225.702 83.3333 225.702 82.24V71.88C225.702 69.64 224.943 67.88 223.423 66.6C221.929 65.2933 219.823 64.64 217.103 64.64C215.689 64.64 214.369 64.84 213.143 65.24C211.943 65.6133 210.982 66.1333 210.263 66.8C209.543 67.4667 209.183 68.1867 209.183 68.96C209.183 69.4133 209.356 69.84 209.702 70.24C210.076 70.64 210.529 70.9333 211.062 71.12C211.649 70.16 212.423 69.44 213.382 68.96C214.342 68.4533 215.463 68.2 216.743 68.2C218.183 68.2 219.303 68.5467 220.103 69.24C220.903 69.9067 221.303 70.8267 221.303 72V73.12C221.596 73.3333 221.983 73.68 222.463 74.16L222.263 74.36C220.609 72.7067 218.569 71.88 216.143 71.88C214.623 71.88 213.249 72.16 212.022 72.72C210.796 73.2533 209.823 74.04 209.103 75.08C208.409 76.0933 208.062 77.2933 208.062 78.68C208.062 80.04 208.396 81.2267 209.062 82.24C209.729 83.2533 210.636 84.0267 211.783 84.56ZM220.103 81.12C219.276 81.7067 218.129 82 216.663 82C215.356 82 214.329 81.72 213.583 81.16C212.836 80.5733 212.463 79.7333 212.463 78.64C212.463 77.5733 212.836 76.7467 213.583 76.16C214.356 75.5467 215.396 75.24 216.702 75.24C218.143 75.24 219.276 75.5467 220.103 76.16C220.956 76.7467 221.382 77.5733 221.382 78.64C221.382 79.7067 220.956 80.5333 220.103 81.12ZM231.865 57.56C231.118 58.1733 230.745 59.0533 230.745 60.2V85.36C232.238 85.36 233.358 85.1333 234.105 84.68C234.852 84.2267 235.225 83.4933 235.225 82.48V73C235.225 71.7467 235.705 70.6933 236.665 69.84C237.625 68.96 238.798 68.52 240.185 68.52C241.438 68.52 242.385 68.8667 243.025 69.56C243.692 70.2267 244.025 71.1067 244.025 72.2V85.36C245.518 85.36 246.638 85.1333 247.385 84.68C248.132 84.2267 248.505 83.4933 248.505 82.48V71.6C248.505 70.2933 248.212 69.1067 247.625 68.04C247.065 66.9733 246.265 66.1467 245.225 65.56C244.185 64.9467 242.972 64.64 241.585 64.64C240.092 64.64 238.745 64.9867 237.545 65.68C236.372 66.3467 235.358 67.28 234.505 68.48L234.265 68.32C234.505 67.9467 234.825 67.5333 235.225 67.08V56.64C233.758 56.64 232.638 56.9467 231.865 57.56ZM256.128 84.56C257.274 85.0933 258.554 85.36 259.968 85.36C261.434 85.36 262.688 85.12 263.728 84.64C264.794 84.1333 265.754 83.4 266.608 82.44L266.808 82.6C266.648 82.8133 266.328 83.16 265.848 83.64V85.36C267.314 85.36 268.381 85.12 269.048 84.64C269.714 84.1333 270.048 83.3333 270.048 82.24V71.88C270.048 69.64 269.288 67.88 267.768 66.6C266.274 65.2933 264.168 64.64 261.448 64.64C260.034 64.64 258.714 64.84 257.488 65.24C256.288 65.6133 255.328 66.1333 254.608 66.8C253.888 67.4667 253.528 68.1867 253.528 68.96C253.528 69.4133 253.701 69.84 254.048 70.24C254.421 70.64 254.874 70.9333 255.408 71.12C255.994 70.16 256.768 69.44 257.728 68.96C258.688 68.4533 259.808 68.2 261.088 68.2C262.528 68.2 263.648 68.5467 264.448 69.24C265.248 69.9067 265.648 70.8267 265.648 72V73.12C265.941 73.3333 266.328 73.68 266.808 74.16L266.608 74.36C264.954 72.7067 262.914 71.88 260.488 71.88C258.968 71.88 257.594 72.16 256.368 72.72C255.141 73.2533 254.168 74.04 253.448 75.08C252.754 76.0933 252.408 77.2933 252.408 78.68C252.408 80.04 252.741 81.2267 253.408 82.24C254.074 83.2533 254.981 84.0267 256.128 84.56ZM264.448 81.12C263.621 81.7067 262.474 82 261.008 82C259.701 82 258.674 81.72 257.928 81.16C257.181 80.5733 256.808 79.7333 256.808 78.64C256.808 77.5733 257.181 76.7467 257.928 76.16C258.701 75.5467 259.741 75.24 261.048 75.24C262.488 75.24 263.621 75.5467 264.448 76.16C265.301 76.7467 265.728 77.5733 265.728 78.64C265.728 79.7067 265.301 80.5333 264.448 81.12ZM277.297 61.56C277.883 62.0933 278.617 62.36 279.497 62.36C280.377 62.36 281.11 62.0933 281.697 61.56C282.283 61 282.577 60.3067 282.577 59.48C282.577 58.6533 282.283 57.9733 281.697 57.44C281.11 56.9067 280.377 56.64 279.497 56.64C278.617 56.64 277.883 56.9067 277.297 57.44C276.71 57.9733 276.417 58.6533 276.417 59.48C276.417 60.3067 276.71 61 277.297 61.56ZM271.457 92.36C272.337 93.0267 273.47 93.36 274.857 93.36C276.243 93.36 277.457 93.0533 278.497 92.44C279.537 91.8533 280.337 91.0267 280.897 89.96C281.457 88.92 281.737 87.76 281.737 86.48V64.64C280.243 64.64 279.123 64.8667 278.377 65.32C277.63 65.7733 277.257 66.5067 277.257 67.52V86.4C277.257 87.3867 277.003 88.1467 276.497 88.68C276.017 89.2133 275.283 89.48 274.297 89.48C272.937 89.48 271.87 89.0667 271.097 88.24C270.483 88.5867 270.177 89.1733 270.177 90C270.177 90.9333 270.603 91.72 271.457 92.36ZM290.629 84.56C291.776 85.0933 293.056 85.36 294.469 85.36C295.936 85.36 297.189 85.12 298.229 84.64C299.296 84.1333 300.256 83.4 301.109 82.44L301.309 82.6C301.149 82.8133 300.829 83.16 300.349 83.64V85.36C301.816 85.36 302.883 85.12 303.549 84.64C304.216 84.1333 304.549 83.3333 304.549 82.24V71.88C304.549 69.64 303.789 67.88 302.269 66.6C300.776 65.2933 298.669 64.64 295.949 64.64C294.536 64.64 293.216 64.84 291.989 65.24C290.789 65.6133 289.829 66.1333 289.109 66.8C288.389 67.4667 288.029 68.1867 288.029 68.96C288.029 69.4133 288.203 69.84 288.549 70.24C288.923 70.64 289.376 70.9333 289.909 71.12C290.496 70.16 291.269 69.44 292.229 68.96C293.189 68.4533 294.309 68.2 295.589 68.2C297.029 68.2 298.149 68.5467 298.949 69.24C299.749 69.9067 300.149 70.8267 300.149 72V73.12C300.443 73.3333 300.829 73.68 301.309 74.16L301.109 74.36C299.456 72.7067 297.416 71.88 294.989 71.88C293.469 71.88 292.096 72.16 290.869 72.72C289.643 73.2533 288.669 74.04 287.949 75.08C287.256 76.0933 286.909 77.2933 286.909 78.68C286.909 80.04 287.243 81.2267 287.909 82.24C288.576 83.2533 289.483 84.0267 290.629 84.56ZM298.949 81.12C298.123 81.7067 296.976 82 295.509 82C294.203 82 293.176 81.72 292.429 81.16C291.683 80.5733 291.309 79.7333 291.309 78.64C291.309 77.5733 291.683 76.7467 292.429 76.16C293.203 75.5467 294.243 75.24 295.549 75.24C296.989 75.24 298.123 75.5467 298.949 76.16C299.803 76.7467 300.229 77.5733 300.229 78.64C300.229 79.7067 299.803 80.5333 298.949 81.12Z" fill="black"/>
</g>
<rect x="21" y="21" width="298" height="96" stroke="black" stroke-width="4" shape-rendering="crispEdges"/>
</g>
<defs>
<filter id="filter0_d_970_110" x="0" y="0" width="340" height="138" filterUnits="userSpaceOnUse" color-interpolation-filters="sRGB">
<feFlood flood-opacity="0" result="BackgroundImageFix"/>
<feColorMatrix in="SourceAlpha" type="matrix" values="0 0 0 0 0 0 0 0 0 0 0 0 0 0 0 0 0 0 127 0" result="hardAlpha"/>
<feOffset/>
<feGaussianBlur stdDeviation="9.5"/>
<feComposite in2="hardAlpha" operator="out"/>
<feColorMatrix type="matrix" values="0 0 0 0 0 0 0 0 0 0 0 0 0 0 0 0 0 0 0.25 0"/>
<feBlend mode="normal" in2="BackgroundImageFix" result="effect1_dropShadow_970_110"/>
<feBlend mode="normal" in="SourceGraphic" in2="effect1_dropShadow_970_110" result="shape"/>
</filter>
<clipPath id="clip0_970_110">
<rect x="19" y="19" width="302" height="100" fill="white"/>
</clipPath>
</defs>
</svg>
