<svg width="279" height="232" viewBox="0 0 279 232" fill="none" xmlns="http://www.w3.org/2000/svg">
<g clip-path="url(#clip0_981_103)">
<path d="M226.563 21.0772C226.563 21.0772 228.026 15.1185 226.915 10.7659L216.359 11.5357C216.359 11.5357 216.36 21.3528 219.343 22.7783C222.326 24.2039 227.342 20.6781 227.342 20.6781" fill="white"/>
<path d="M220.967 23.6051C220.331 23.6186 219.701 23.4852 219.124 23.2155C215.999 21.7044 215.875 12.5716 215.875 11.5357C215.872 11.4128 215.917 11.2937 216.001 11.2033C216.084 11.1129 216.199 11.0584 216.322 11.051L226.886 10.2812C227.001 10.2695 227.116 10.3009 227.21 10.3694C227.303 10.4379 227.367 10.5386 227.39 10.6519C228.254 14.0351 227.618 18.2547 227.247 20.2029C227.357 20.1835 227.47 20.2017 227.568 20.2546C227.666 20.3075 227.743 20.3919 227.787 20.4942C227.831 20.5966 227.839 20.7108 227.81 20.8183C227.781 20.9259 227.717 21.0204 227.627 21.0867C227.447 21.2102 223.96 23.6051 220.967 23.6051ZM216.854 11.9633C216.92 14.8904 217.481 21.3053 219.552 22.3032C221.452 23.2535 224.559 21.7424 226.107 20.8491C226.269 20.1173 227.352 15.147 226.535 11.2601L216.854 11.9633Z" fill="#231F20"/>
<path d="M197.216 79.7328C193.415 84.9787 179.687 113.489 178.765 114.82C177.492 116.663 173.454 117.215 171.792 118.46C169.815 119.942 168.447 122.888 167.478 125.112C167.071 125.891 166.869 126.761 166.889 127.64C166.902 128.086 167.063 128.515 167.347 128.86C167.631 129.204 168.021 129.443 168.457 129.541C168.86 129.533 169.257 129.445 169.626 129.282C169.995 129.119 170.327 128.884 170.604 128.59L174.528 125.321C174.917 126.214 174.433 127.222 174.053 128.096C173.673 128.97 173.445 130.168 174.167 130.805C174.441 131.026 174.769 131.17 175.117 131.223C177.35 131.679 179.639 130.415 181.083 128.666C182.527 126.918 184.428 126.081 185.226 123.915C186.176 121.425 190.413 117.319 191.639 114.953C192.494 113.309 189.415 112.187 190.565 110.705L198.166 100.945L207.837 88.4665" fill="white"/>
<path d="M176.019 131.707C175.7 131.707 175.382 131.675 175.069 131.612C174.633 131.545 174.223 131.361 173.882 131.08C173.131 130.405 173.036 129.18 173.644 127.811L173.711 127.64C173.943 127.174 174.109 126.678 174.205 126.167L170.917 128.856C170.595 129.201 170.205 129.474 169.772 129.659C169.338 129.844 168.871 129.936 168.4 129.93C167.861 129.822 167.373 129.539 167.013 129.125C166.652 128.71 166.438 128.188 166.405 127.64C166.369 126.679 166.585 125.726 167.032 124.874C167.83 123.059 169.312 119.676 171.497 118.041C172.424 117.456 173.424 116.996 174.471 116.673C176.057 116.093 177.692 115.485 178.366 114.516C178.632 114.126 180.323 110.714 182.28 106.837C187.031 97.3333 194.166 83.078 196.826 79.4192C196.86 79.357 196.906 79.3028 196.962 79.2601C197.019 79.2175 197.084 79.1874 197.152 79.1719C197.221 79.1564 197.293 79.1559 197.362 79.1704C197.431 79.1849 197.496 79.214 197.553 79.2559C197.61 79.2977 197.657 79.3513 197.692 79.413C197.726 79.4747 197.747 79.543 197.753 79.6134C197.759 79.6839 197.749 79.7547 197.726 79.8212C197.702 79.8877 197.664 79.9483 197.615 79.9989C195.011 83.5532 187.591 98.4072 183.154 107.274C180.741 112.102 179.468 114.649 179.174 115.076C178.328 116.302 176.532 116.977 174.803 117.595C173.849 117.89 172.936 118.305 172.086 118.83C170.1 120.313 168.685 123.582 167.925 125.264C167.548 125.964 167.362 126.75 167.383 127.545C167.395 127.871 167.511 128.185 167.715 128.44C167.918 128.695 168.198 128.878 168.514 128.961C169.193 128.913 169.829 128.607 170.29 128.106L174.214 124.846C174.272 124.795 174.341 124.759 174.415 124.741C174.49 124.723 174.567 124.723 174.642 124.741C174.716 124.759 174.785 124.794 174.843 124.843C174.901 124.893 174.946 124.956 174.974 125.026C175.119 125.526 175.159 126.05 175.09 126.565C175.021 127.081 174.846 127.576 174.575 128.02L174.509 128.191C174.347 128.552 173.882 129.797 174.509 130.339C174.721 130.504 174.974 130.609 175.24 130.643C176.285 130.763 177.343 130.604 178.308 130.184C179.272 129.763 180.108 129.095 180.732 128.248C181.268 127.62 181.859 127.041 182.499 126.519C183.497 125.784 184.286 124.801 184.789 123.667C185.34 122.204 186.907 120.294 188.418 118.45C189.477 117.269 190.431 115.997 191.268 114.649C191.515 114.173 191.268 113.774 190.689 113.024C190.109 112.273 189.415 111.389 190.232 110.334L207.476 88.0959C207.516 88.044 207.565 88.0004 207.621 87.9675C207.677 87.9346 207.739 87.9131 207.803 87.9043C207.868 87.8955 207.933 87.8994 207.996 87.916C208.059 87.9326 208.118 87.9614 208.17 88.0009C208.271 88.0829 208.337 88.2011 208.353 88.3305C208.368 88.4599 208.334 88.5904 208.255 88.6946L190.945 110.971C190.641 111.36 190.774 111.655 191.401 112.463C192.028 113.271 192.636 114.05 192.066 115.143C191.21 116.551 190.231 117.881 189.14 119.115C187.771 120.599 186.605 122.258 185.672 124.048C185.111 125.329 184.228 126.442 183.107 127.279C182.512 127.76 181.957 128.288 181.444 128.856C180.799 129.695 179.98 130.384 179.044 130.876C178.107 131.368 177.076 131.652 176.019 131.707Z" fill="#231F20"/>
<path d="M191.173 53.009C191.173 53.009 193.748 76.8532 191.515 82.3558C189.026 88.514 178.385 111.57 178.385 111.57L190.195 118.925C190.195 118.925 201.491 101.296 202.659 94.0451C203.828 86.7939 191.173 53.009 191.173 53.009Z" fill="black"/>
<path d="M127.195 136.402C127.195 136.402 98.4269 135.784 86.9215 139.253L95.0826 159.429C95.0826 159.429 126.815 149.593 127.195 136.402Z" fill="#231F20"/>
<path d="M95.0827 159.914C94.988 159.917 94.8946 159.891 94.8161 159.838C94.7375 159.785 94.6778 159.708 94.6456 159.619L86.4845 139.443C86.4586 139.382 86.4453 139.315 86.4453 139.248C86.4453 139.182 86.4586 139.115 86.4845 139.054C86.5142 138.995 86.5556 138.942 86.6062 138.9C86.6569 138.857 86.7157 138.825 86.779 138.807C98.1799 135.347 126.027 135.898 127.195 135.955C127.258 135.954 127.321 135.966 127.379 135.99C127.438 136.014 127.491 136.05 127.534 136.095C127.578 136.141 127.612 136.195 127.634 136.255C127.655 136.314 127.665 136.377 127.661 136.44C127.499 142.142 121.96 147.778 111.205 153.318C106.054 155.93 100.708 158.138 95.2157 159.923C95.1711 159.928 95.1261 159.925 95.0827 159.914V159.914ZM87.5581 139.576L95.3582 158.859C99.0255 157.652 125.647 148.529 126.711 136.868C122.901 136.801 98.3224 136.554 87.5581 139.576Z" fill="#231F20"/>
<path d="M2.30798 154.896C2.30798 154.896 10.8586 150.144 25.8128 148.814L28.663 164.78L2.30798 154.896Z" fill="#231F20"/>
<path d="M28.7106 165.255C28.6543 165.268 28.5958 165.268 28.5395 165.255L2.14651 155.343C2.06051 155.312 1.98519 155.257 1.92959 155.184C1.87398 155.112 1.84044 155.025 1.83299 154.934C1.82854 154.844 1.84931 154.754 1.89295 154.675C1.93659 154.597 2.00137 154.531 2.08 154.487C2.16551 154.44 10.8587 149.688 25.7653 148.339C25.8837 148.329 26.0014 148.364 26.096 148.436C26.1905 148.508 26.2554 148.612 26.2784 148.728L29.1286 164.694C29.1405 164.776 29.1319 164.86 29.1038 164.938C29.0756 165.016 29.0287 165.085 28.9671 165.141C28.8953 165.204 28.8058 165.244 28.7106 165.255ZM3.50511 154.801L28.093 164.019L25.4233 149.308C13.7849 150.439 6.07981 153.622 3.50511 154.839V154.801Z" fill="#231F20"/>
<path d="M122.749 161.282L122.093 192.245C122.062 193.707 121.524 195.113 120.571 196.223C119.618 197.332 118.309 198.076 116.868 198.327L98.8164 201.492C97.5359 201.719 96.2165 201.544 95.0393 200.991C93.8622 200.438 92.885 199.534 92.2419 198.403L83.9668 183.977L88.7172 181.772L95.7572 194.43C96.1501 195.144 96.7555 195.718 97.4892 196.073C98.223 196.427 99.0488 196.544 99.852 196.407L113.657 194.031C114.55 193.88 115.364 193.423 115.958 192.738C116.552 192.054 116.891 191.184 116.915 190.277L117.59 165.91L122.749 161.282Z" fill="#231F20"/>
<path d="M97.6954 202.033C96.4979 202.033 95.3218 201.716 94.2858 201.116C93.2499 200.515 92.3908 199.651 91.7954 198.612L83.5868 184.195C83.5534 184.138 83.5321 184.075 83.5239 184.01C83.5157 183.945 83.5209 183.878 83.5393 183.815C83.5838 183.69 83.676 183.587 83.7958 183.53L88.5937 181.325C88.7027 181.274 88.8271 181.266 88.9418 181.303C89.0565 181.34 89.1528 181.419 89.2112 181.525L96.1943 194.221C96.5432 194.848 97.0774 195.352 97.7238 195.663C98.3701 195.975 99.0969 196.079 99.8045 195.961L113.609 193.585C114.392 193.445 115.103 193.04 115.622 192.438C116.141 191.835 116.437 191.072 116.459 190.277L117.124 165.92C117.125 165.856 117.139 165.792 117.165 165.733C117.191 165.675 117.229 165.622 117.276 165.578L122.426 160.931C122.493 160.866 122.578 160.824 122.67 160.811C122.762 160.797 122.856 160.812 122.939 160.855C123.024 160.891 123.095 160.952 123.144 161.03C123.194 161.108 123.218 161.2 123.214 161.292L122.54 192.254C122.502 193.826 121.921 195.337 120.896 196.529C119.87 197.721 118.464 198.521 116.915 198.793L98.864 201.957C98.4778 202.02 98.0864 202.046 97.6954 202.033V202.033ZM84.6319 184.176L92.6125 198.165C93.2125 199.208 94.1187 200.041 95.2082 200.551C96.2976 201.061 97.5176 201.224 98.7024 201.016L116.754 197.852C118.087 197.617 119.298 196.927 120.18 195.899C121.061 194.872 121.56 193.57 121.59 192.216L122.217 162.356L118.036 166.158L117.362 190.315C117.333 191.331 116.954 192.304 116.289 193.072C115.624 193.839 114.714 194.353 113.714 194.526L99.909 196.901C99.0076 197.055 98.0808 196.924 97.257 196.528C96.4331 196.131 95.7529 195.488 95.3107 194.687L88.5367 182.38L84.6319 184.176Z" fill="#231F20"/>
<path d="M35.133 218.731L180.01 126.005C180.55 125.58 180.899 124.958 180.981 124.276C181.063 123.593 180.871 122.906 180.447 122.365C180.237 122.098 179.977 121.875 179.681 121.709C179.385 121.542 179.06 121.435 178.723 121.395C178.386 121.354 178.044 121.38 177.717 121.472C177.39 121.563 177.084 121.719 176.817 121.928L31.9028 214.654C31.3628 215.079 31.0135 215.701 30.9315 216.383C30.8496 217.066 31.0417 217.753 31.4657 218.294V218.294C31.6764 218.565 31.9389 218.792 32.238 218.962C32.5371 219.131 32.8668 219.239 33.208 219.28C33.5492 219.32 33.8951 219.293 34.2255 219.198C34.556 219.104 34.8645 218.945 35.133 218.731Z" fill="white"/>
<path d="M33.5084 219.767C32.8675 219.77 32.2415 219.573 31.7184 219.202C31.1953 218.832 30.8013 218.307 30.5917 217.701C30.3821 217.095 30.3675 216.439 30.5498 215.824C30.7321 215.209 31.1023 214.667 31.6083 214.274L176.561 121.482C176.881 121.232 177.247 121.048 177.638 120.94C178.029 120.832 178.438 120.802 178.841 120.852C179.243 120.901 179.632 121.03 179.985 121.23C180.338 121.431 180.649 121.698 180.898 122.019C181.148 122.339 181.332 122.705 181.44 123.096C181.548 123.487 181.578 123.896 181.528 124.299C181.478 124.702 181.349 125.091 181.149 125.444C180.949 125.797 180.681 126.107 180.361 126.357L35.3801 219.14C34.843 219.55 34.1846 219.771 33.5084 219.767ZM178.404 121.881C177.936 121.881 177.48 122.038 177.112 122.327L32.1688 215.072C31.7419 215.418 31.4693 215.92 31.4106 216.466C31.3519 217.013 31.5117 217.561 31.8553 217.99C32.2011 218.424 32.7043 218.705 33.2557 218.771C33.8071 218.837 34.3622 218.682 34.8005 218.341V218.341L179.706 125.587C180.13 125.238 180.402 124.736 180.462 124.189C180.523 123.643 180.367 123.094 180.029 122.66C179.68 122.225 179.176 121.943 178.623 121.871L178.404 121.881Z" fill="#231F20"/>
<path d="M143.137 162.527L142.491 193.48C142.459 194.943 141.92 196.35 140.967 197.461C140.015 198.571 138.707 199.317 137.266 199.572L119.214 202.737C117.933 202.96 116.614 202.782 115.437 202.228C114.261 201.673 113.284 200.769 112.64 199.638L104.403 185.203L109.153 182.988L116.136 195.685C116.529 196.402 117.135 196.978 117.871 197.332C118.607 197.687 119.436 197.802 120.241 197.662L134.045 195.295C134.946 195.141 135.764 194.676 136.359 193.982C136.954 193.288 137.288 192.408 137.304 191.494L137.978 167.136L143.137 162.527Z" fill="white"/>
<path d="M118.094 203.326C116.892 203.326 115.712 203.009 114.673 202.406C113.634 201.804 112.772 200.938 112.175 199.895L103.937 185.45C103.902 185.392 103.879 185.326 103.871 185.259C103.863 185.191 103.87 185.123 103.89 185.058C103.911 184.993 103.946 184.933 103.991 184.883C104.037 184.832 104.093 184.792 104.156 184.765L108.906 182.551C109.02 182.502 109.147 182.496 109.264 182.534C109.382 182.573 109.481 182.653 109.543 182.76L116.535 195.457C116.877 196.084 117.406 196.588 118.048 196.898C118.691 197.208 119.414 197.309 120.117 197.187L133.941 194.82C134.721 194.683 135.431 194.281 135.95 193.682C136.469 193.084 136.766 192.324 136.791 191.532L137.466 167.165C137.466 167.098 137.481 167.033 137.509 166.972C137.537 166.911 137.577 166.857 137.627 166.813L142.776 162.166C142.847 162.102 142.935 162.06 143.03 162.044C143.124 162.029 143.221 162.042 143.308 162.081C143.393 162.124 143.464 162.189 143.514 162.269C143.564 162.35 143.592 162.442 143.593 162.537L142.976 193.48C142.941 195.058 142.36 196.574 141.333 197.771C140.306 198.969 138.895 199.773 137.342 200.047L119.291 203.212C118.896 203.284 118.495 203.323 118.094 203.326V203.326ZM105.049 185.431L113.03 199.41C113.624 200.452 114.525 201.284 115.61 201.795C116.694 202.305 117.91 202.468 119.091 202.261L137.142 199.097C138.47 198.86 139.675 198.172 140.553 197.148C141.431 196.124 141.928 194.829 141.959 193.48L142.586 163.658L138.435 167.403L137.77 191.56C137.739 192.58 137.357 193.558 136.689 194.328C136.021 195.099 135.107 195.615 134.102 195.79L120.298 198.156C119.393 198.31 118.462 198.179 117.635 197.78C116.807 197.382 116.124 196.736 115.68 195.932L108.916 183.635L105.049 185.431Z" fill="#231F20"/>
<path d="M21.4805 151H21.6895C22.9816 147.92 24.4162 143.71 27.0669 141.496C29.081 139.823 32.6248 139.719 33.9644 141.981C34.7207 140.251 35.8196 138.693 37.1947 137.4C38.6578 136.212 40.824 135.689 42.4391 136.659C41.489 136.07 46.2394 132.259 46.7524 132.031C48.7516 131.245 50.9328 131.044 53.0419 131.451C52.6809 127.478 61.488 123.601 64.5758 122.337C69.9057 120.17 79.1879 119.049 82.0761 125.255C83.7008 124.162 85.4014 122.793 87.425 122.451C89.4487 122.109 91.9094 123.164 92.3464 125.197C95.8712 124.247 96.2227 125.397 97.9614 127.554C98.9114 128.723 101.819 128.239 103.263 128.885C104.265 129.322 105.123 130.032 105.74 130.935C106.357 131.838 106.707 132.896 106.75 133.988C108.419 133.511 110.187 133.501 111.862 133.958C113.537 134.415 115.055 135.323 116.25 136.583C121.2 141.658 120.782 149.593 117.799 155.428C113.913 163.031 107.063 169.949 99.8615 174.483C91.0733 180.004 80.9265 183.036 70.6943 184.765C60.1009 186.543 49.0421 186.942 38.7718 183.815C31.9885 181.79 25.8577 178.014 20.9959 172.867C18.6017 170.263 16.0935 167.992 13.8039 165.53C12.828 164.433 12.1691 163.091 11.898 161.648C11.6268 160.205 11.7536 158.715 12.2647 157.338C13.6519 153.622 17.5566 151.304 21.4805 151Z" fill="white"/>
<path d="M55.5311 186.59C49.7949 186.653 44.0817 185.855 38.5818 184.224C31.7167 182.183 25.5145 178.36 20.6064 173.143C19.3618 171.793 18.0792 170.52 16.8061 169.341C15.533 168.163 14.4879 167.041 13.3764 165.853C12.3391 164.692 11.6387 163.269 11.3507 161.738C11.0627 160.207 11.1981 158.627 11.7422 157.167C13.1388 153.584 16.9866 150.952 21.3285 150.581C21.471 150.239 21.623 149.878 21.7655 149.517C22.9816 146.533 24.3592 143.15 26.7344 141.173C27.3918 140.638 28.1548 140.248 28.9735 140.028C29.7921 139.809 30.6479 139.765 31.4848 139.899C32.3928 140.041 33.2299 140.475 33.8694 141.135C34.5912 139.596 35.6118 138.217 36.8717 137.077C37.5595 136.486 38.3826 136.075 39.2677 135.879C40.1528 135.684 41.0725 135.71 41.9451 135.955C42.6861 134.416 46.2299 131.774 46.5339 131.641C48.4349 130.854 50.5187 130.617 52.5479 130.957C52.9089 127.155 60.025 123.705 64.3763 121.938C69.8582 119.714 78.9694 118.659 82.2377 124.599L82.5037 124.409C83.9133 123.262 85.5628 122.446 87.3301 122.023C89.4107 121.672 91.9189 122.651 92.66 124.665C95.5672 123.972 96.3938 124.836 97.7714 126.566C97.9424 126.775 98.1134 127.013 98.3129 127.25C98.75 127.792 99.909 127.897 101.021 127.992C101.843 128.022 102.657 128.176 103.434 128.448C104.424 128.881 105.287 129.562 105.941 130.423C106.595 131.285 107.017 132.299 107.168 133.371C108.841 133.013 110.578 133.087 112.215 133.586C113.852 134.084 115.336 134.991 116.526 136.222C121.751 141.582 121.115 149.821 118.16 155.609C114.455 162.86 107.709 170.054 100.052 174.853C92.1374 179.833 82.5322 183.216 70.7038 185.203C65.6933 186.084 60.6183 186.548 55.5311 186.59V186.59ZM30.5727 140.726C29.4077 140.726 28.2778 141.126 27.3709 141.857C25.1763 143.682 23.8462 146.951 22.6776 149.821C22.4876 150.287 22.307 150.771 22.1265 151.171C22.0903 151.253 22.0323 151.324 21.9586 151.376C21.8849 151.428 21.7984 151.459 21.7085 151.465H21.5185C17.4997 151.779 13.9179 154.183 12.6543 157.452C12.1753 158.747 12.0575 160.147 12.3136 161.503C12.5697 162.859 13.19 164.12 14.1079 165.15C15.2005 166.319 16.3216 167.431 17.4997 168.609C18.6778 169.788 20.0459 171.128 21.3 172.487C26.0936 177.588 32.156 181.324 38.8668 183.311C47.769 186.058 58.1438 186.372 70.5708 184.262C82.2662 182.295 91.7574 178.949 99.567 174.036C107.063 169.284 113.704 162.271 117.333 155.172C120.127 149.688 120.763 141.867 115.861 136.877C114.733 135.686 113.302 134.826 111.721 134.391C110.14 133.955 108.47 133.961 106.892 134.406C106.82 134.428 106.745 134.434 106.671 134.422C106.597 134.411 106.526 134.383 106.465 134.34C106.406 134.293 106.359 134.233 106.326 134.166C106.294 134.099 106.276 134.025 106.275 133.95C106.228 132.95 105.903 131.983 105.336 131.158C104.768 130.333 103.981 129.684 103.063 129.284C102.383 129.055 101.672 128.927 100.954 128.904C99.643 128.79 98.2844 128.657 97.6004 127.811C97.3913 127.564 97.2108 127.326 97.0398 127.108C95.7667 125.473 95.2917 124.855 92.47 125.625C92.3437 125.654 92.2113 125.633 92.0994 125.568C92.0443 125.535 91.9965 125.491 91.959 125.439C91.9214 125.386 91.8948 125.327 91.8809 125.264C91.5009 123.487 89.2777 122.584 87.5011 122.879C85.8789 123.296 84.3656 124.057 83.0642 125.112L82.3422 125.616C82.2854 125.653 82.221 125.678 82.1537 125.687C82.0864 125.697 82.0178 125.692 81.9527 125.673C81.8859 125.656 81.8239 125.624 81.7712 125.579C81.7185 125.535 81.6766 125.479 81.6486 125.416C80.2045 122.318 74.3426 118.84 64.7563 122.746C57.4978 125.692 53.2889 128.923 53.517 131.365C53.5222 131.437 53.5122 131.508 53.4877 131.575C53.4631 131.643 53.4245 131.704 53.3744 131.755C53.3224 131.803 53.2606 131.838 53.1933 131.86C53.1261 131.881 53.0549 131.887 52.9849 131.878C50.9631 131.487 48.8717 131.674 46.952 132.42C46.3439 132.724 43.0661 135.49 42.7906 136.307C42.8649 136.392 42.9065 136.501 42.908 136.614C42.9094 136.726 42.8707 136.836 42.7987 136.923C42.7267 137.01 42.6261 137.068 42.5149 137.088C42.4038 137.107 42.2893 137.087 42.1921 137.029C40.672 136.079 38.6958 136.754 37.4987 137.733C36.1754 138.986 35.1159 140.492 34.3825 142.161C34.3452 142.238 34.2871 142.303 34.2149 142.348C34.1427 142.393 34.0592 142.418 33.9739 142.418C33.8894 142.418 33.8062 142.397 33.7316 142.357C33.657 142.318 33.5934 142.26 33.5464 142.19C33.3078 141.803 32.9862 141.475 32.6049 141.229C32.2237 140.982 31.7924 140.823 31.3422 140.764C31.0875 140.728 30.8298 140.715 30.5727 140.726V140.726Z" fill="#D1D3D4"/>
<path d="M117.343 175.709C117.343 175.709 125.894 152.653 124.687 142.693C124.687 142.693 112.583 157.224 69.8487 163.725C32.6438 169.427 4.69269 157.224 4.69269 157.224C4.69269 157.224 34.335 195.476 57.5643 205.255L117.343 175.709Z" fill="white"/>
<path d="M57.5643 205.74C57.5018 205.754 57.4368 205.754 57.3743 205.74C34.297 196.027 4.59771 157.947 4.30319 157.557C4.2404 157.47 4.2073 157.366 4.20885 157.259C4.21041 157.152 4.24653 157.049 4.31181 156.964C4.37708 156.88 4.468 156.819 4.57093 156.79C4.67386 156.762 4.78326 156.767 4.88273 156.806C5.16776 156.93 33.1569 168.857 69.7727 163.278C111.775 156.892 124.193 142.56 124.316 142.37C124.379 142.298 124.46 142.245 124.552 142.218C124.643 142.191 124.74 142.191 124.832 142.218C124.923 142.246 125.005 142.299 125.067 142.371C125.129 142.444 125.168 142.532 125.181 142.627C126.426 152.587 118.15 174.939 117.799 175.889C117.751 176.005 117.663 176.099 117.552 176.155L57.7733 205.702C57.7071 205.729 57.6359 205.742 57.5643 205.74V205.74ZM6.20334 158.317C11.8278 165.312 37.2707 196.018 57.5073 204.685L116.906 175.328C117.675 173.219 124.772 153.47 124.259 143.796C121.01 146.989 107.025 158.526 69.8773 164.181C38.1828 169.047 12.8634 160.817 6.20334 158.317Z" fill="#231F20"/>
<path d="M35.8456 230.81C43.8632 230.81 50.3627 224.308 50.3627 216.289C50.3627 208.269 43.8632 201.767 35.8456 201.767C27.828 201.767 21.3285 208.269 21.3285 216.289C21.3285 224.308 27.828 230.81 35.8456 230.81Z" fill="#231F20"/>
<path d="M35.8456 231.285C32.8805 231.285 29.9819 230.406 27.5164 228.758C25.051 227.11 23.1294 224.768 21.9947 222.028C20.86 219.287 20.5631 216.272 21.1415 213.363C21.72 210.454 23.1479 207.782 25.2446 205.684C27.3413 203.587 30.0126 202.159 32.9208 201.58C35.829 201.002 38.8434 201.299 41.5829 202.434C44.3223 203.569 46.6638 205.491 48.3111 207.957C49.9585 210.423 50.8378 213.323 50.8378 216.289C50.8327 220.264 49.2516 224.076 46.4411 226.887C43.6306 229.698 39.8202 231.28 35.8456 231.285V231.285ZM35.8456 202.242C33.0684 202.242 30.3535 203.066 28.0443 204.61C25.735 206.153 23.9352 208.347 22.8724 210.913C21.8096 213.48 21.5315 216.304 22.0733 219.029C22.6152 221.754 23.9525 224.256 25.9164 226.221C27.8802 228.185 30.3822 229.523 33.1061 230.065C35.83 230.607 38.6534 230.329 41.2193 229.266C43.7851 228.202 45.9782 226.402 47.5212 224.092C49.0642 221.782 49.8877 219.067 49.8877 216.289C49.8827 212.565 48.4016 208.995 45.7693 206.362C43.137 203.729 39.5683 202.247 35.8456 202.242V202.242Z" fill="#231F20"/>
<path d="M35.8456 225.792C41.0927 225.792 45.3463 221.537 45.3463 216.289C45.3463 211.04 41.0927 206.785 35.8456 206.785C30.5985 206.785 26.3448 211.04 26.3448 216.289C26.3448 221.537 30.5985 225.792 35.8456 225.792Z" fill="white"/>
<path d="M35.8456 226.277C33.8707 226.277 31.9402 225.691 30.2981 224.593C28.656 223.496 27.3762 221.936 26.6204 220.111C25.8647 218.286 25.6669 216.277 26.0522 214.34C26.4375 212.402 27.3885 210.623 28.785 209.226C30.1814 207.829 31.9606 206.878 33.8976 206.492C35.8345 206.107 37.8423 206.305 39.6668 207.061C41.4914 207.817 43.0509 209.097 44.1481 210.739C45.2453 212.382 45.8309 214.313 45.8309 216.289C45.8284 218.937 44.7756 221.476 42.9035 223.348C41.0314 225.221 38.4931 226.274 35.8456 226.277V226.277ZM35.8456 207.27C34.0647 207.27 32.3237 207.798 30.8428 208.787C29.3618 209.777 28.2074 211.183 27.5254 212.829C26.8435 214.475 26.6645 216.286 27.0113 218.033C27.3581 219.781 28.2149 221.386 29.4736 222.646C30.7322 223.907 32.3362 224.765 34.0827 225.114C35.8292 225.463 37.6398 225.286 39.2858 224.605C40.9317 223.925 42.339 222.772 43.3298 221.291C44.3206 219.811 44.8504 218.07 44.8523 216.289C44.8498 213.9 43.9001 211.61 42.2115 209.921C40.523 208.232 38.2336 207.282 35.8456 207.279V207.27Z" fill="#231F20"/>
<path d="M243.095 101.068L242.249 159.039L266.523 187.978L261.251 199.943C261.251 199.943 223.514 178.189 217.101 169.237C210.688 160.284 209.728 138.702 209.728 138.702L188.608 159.904L180.494 200.826L164.343 199.943C164.343 199.943 166.395 171.27 166.395 158.735C166.395 146.2 198.318 103.083 198.318 103.083L243.095 101.068Z" fill="#231F20"/>
<path d="M180.494 201.302L164.343 200.418C164.219 200.408 164.103 200.35 164.02 200.256C163.977 200.21 163.945 200.156 163.923 200.098C163.902 200.039 163.893 199.976 163.896 199.914C163.896 199.629 165.949 171.118 165.949 158.735C165.949 146.181 196.655 104.565 197.966 102.798C198.007 102.742 198.06 102.696 198.12 102.663C198.181 102.63 198.249 102.611 198.318 102.608L243.057 100.593C243.121 100.588 243.186 100.598 243.247 100.621C243.308 100.644 243.363 100.68 243.408 100.726C243.454 100.772 243.491 100.827 243.515 100.887C243.54 100.948 243.552 101.012 243.551 101.078L242.705 158.859L266.865 187.655C266.926 187.72 266.965 187.802 266.979 187.89C266.993 187.978 266.979 188.068 266.941 188.149L261.678 200.133C261.654 200.195 261.615 200.25 261.566 200.295C261.516 200.339 261.457 200.372 261.393 200.389C261.333 200.415 261.268 200.428 261.203 200.428C261.138 200.428 261.073 200.415 261.013 200.389C259.464 199.496 223.124 178.531 216.711 169.55C211.011 161.615 209.595 144.338 209.31 139.823L189.045 160.132L180.96 200.921C180.94 201.03 180.882 201.127 180.797 201.197C180.711 201.266 180.604 201.303 180.494 201.302ZM164.885 199.496L180.086 200.332L188.123 159.809C188.139 159.717 188.182 159.63 188.247 159.562L209.386 138.36C209.452 138.295 209.536 138.251 209.627 138.232C209.718 138.214 209.812 138.222 209.899 138.255C209.984 138.289 210.056 138.346 210.109 138.42C210.161 138.495 210.191 138.583 210.194 138.674C210.194 138.883 211.22 160.208 217.481 168.952C223.39 177.191 256.719 196.749 261.032 199.258L265.972 188.025L241.888 159.325C241.815 159.236 241.774 159.126 241.774 159.011L242.62 101.553L198.612 103.539C196.36 106.599 166.918 146.885 166.918 158.726C166.918 170.263 165.16 195.685 164.894 199.496H164.885Z" fill="#231F20"/>
<path d="M241.983 39.9892C229.205 33.5458 196.332 31.7876 191.515 41.5953C187.715 49.3881 199.277 90.4527 199.277 90.4527L239.94 98.8538C239.94 98.8538 248.358 43.2013 241.983 39.9892Z" fill="black"/>
<path d="M194.213 110.667L198.128 70.3909L244.216 73.4415L243.009 106.808L194.213 110.667Z" fill="#231F20"/>
<path d="M194.213 111.142C194.151 111.143 194.089 111.13 194.032 111.106C193.975 111.081 193.923 111.045 193.881 110.999C193.832 110.95 193.794 110.89 193.771 110.824C193.748 110.759 193.74 110.688 193.748 110.619L197.653 70.3433C197.657 70.2821 197.674 70.2224 197.702 70.1677C197.73 70.1131 197.769 70.0644 197.815 70.0247C197.862 69.9849 197.916 69.9548 197.975 69.9361C198.033 69.9174 198.095 69.9105 198.156 69.9157L244.244 72.9663C244.367 72.9736 244.482 73.0282 244.565 73.1186C244.648 73.209 244.693 73.3281 244.691 73.451L243.484 106.827C243.478 106.943 243.43 107.053 243.35 107.136C243.27 107.22 243.162 107.272 243.047 107.283L194.251 111.142H194.213ZM198.546 70.885L194.745 110.144L242.553 106.343L243.731 73.8501L198.546 70.885Z" fill="#231F20"/>
<path d="M212.189 33.5743L213.063 42.1274C213.063 42.1274 215.086 46.6986 220.388 44.4083C221.91 43.7497 223.22 42.6813 224.171 41.3222C225.122 39.9631 225.677 38.3666 225.775 36.7105L224.084 21.3243C224.084 21.3243 219.609 19.8417 219.286 10.7279C219.286 10.7279 213.965 10.7279 205.567 11.1175C205.567 11.1175 204.408 25.2872 205.814 29.4593C207.22 33.6313 212.189 33.5743 212.189 33.5743Z" fill="white"/>
<path d="M217.595 45.5772C216.551 45.5505 215.535 45.2376 214.657 44.6729C213.779 44.1081 213.073 43.3131 212.616 42.3745C212.612 42.3239 212.612 42.2731 212.616 42.2225L211.78 34.0495C210.46 33.9544 206.621 33.3462 205.386 29.6684C203.971 25.4488 205.063 11.7163 205.111 11.127C205.122 11.0076 205.177 10.8964 205.264 10.8142C205.351 10.732 205.466 10.6844 205.586 10.6804C213.899 10.3192 219.267 10.2907 219.324 10.2907C219.451 10.2906 219.574 10.3401 219.666 10.4287C219.759 10.5173 219.813 10.6382 219.818 10.7659C220.122 19.4331 224.236 20.8966 224.283 20.9061C224.372 20.9376 224.451 20.9935 224.509 21.0675C224.568 21.1414 224.605 21.2304 224.616 21.3243L226.269 36.6724C226.169 38.434 225.583 40.1334 224.577 41.5826C223.571 43.0318 222.183 44.1742 220.568 44.8835C219.634 45.3136 218.623 45.5496 217.595 45.5772V45.5772ZM213.547 42.0324C213.813 42.5741 215.694 45.9383 220.198 43.9996C221.637 43.3823 222.876 42.3759 223.776 41.0934C224.675 39.8109 225.2 38.303 225.29 36.739L223.628 21.7044C222.582 21.1912 219.219 18.9579 218.82 11.2506C217.367 11.2506 212.683 11.3361 206.023 11.6212C205.842 14.0161 205.073 25.7054 206.279 29.3357C207.486 32.9661 211.98 33.0801 212.179 33.0706C212.303 33.0719 212.422 33.1177 212.514 33.1998C212.607 33.2819 212.667 33.3946 212.683 33.5173L213.547 42.0324Z" fill="#231F20"/>
<path d="M222.44 21.6474C222.497 20.8565 222.811 20.1059 223.333 19.5091C224.625 18.0361 227.333 17.0097 228.558 19.072C230.516 22.3697 227 26.6177 223.438 25.7244" fill="white"/>
<path d="M224.416 26.3326C224.047 26.332 223.68 26.2841 223.324 26.1901C223.261 26.1756 223.202 26.1488 223.15 26.1112C223.097 26.0736 223.053 26.026 223.02 25.9711C222.986 25.9163 222.964 25.8553 222.954 25.7917C222.944 25.7282 222.947 25.6633 222.963 25.6009C222.978 25.5378 223.006 25.4785 223.044 25.4262C223.083 25.3739 223.131 25.3298 223.187 25.2962C223.243 25.2627 223.304 25.2404 223.368 25.2307C223.433 25.221 223.498 25.2241 223.561 25.2397C224.351 25.404 225.172 25.3311 225.921 25.0301C226.67 24.7291 227.313 24.2136 227.77 23.5481C228.254 22.9663 228.549 22.2504 228.615 21.4963C228.681 20.7422 228.516 19.9859 228.14 19.3286C228.003 19.0659 227.803 18.8416 227.557 18.6757C227.312 18.5098 227.029 18.4076 226.734 18.3782C226.157 18.3851 225.587 18.5159 225.064 18.7618C224.541 19.0078 224.077 19.3631 223.704 19.8037C223.251 20.3211 222.977 20.9712 222.925 21.6569C222.921 21.7215 222.904 21.7846 222.876 21.8427C222.848 21.9008 222.808 21.9526 222.759 21.9951C222.711 22.0376 222.654 22.07 222.593 22.0902C222.531 22.1105 222.466 22.1183 222.402 22.1131C222.273 22.1033 222.152 22.043 222.067 21.9452C221.982 21.8474 221.938 21.72 221.946 21.5904C222.015 20.6913 222.371 19.8383 222.963 19.1575C223.436 18.5965 224.029 18.1483 224.698 17.8458C225.367 17.5433 226.095 17.394 226.829 17.4088C227.272 17.4512 227.697 17.6027 228.067 17.8499C228.437 18.097 228.739 18.432 228.948 18.8249C229.417 19.6507 229.628 20.5983 229.554 21.5452C229.479 22.4922 229.122 23.3951 228.53 24.1373C228.06 24.7958 227.444 25.3366 226.73 25.7174C226.017 26.0983 225.225 26.3088 224.416 26.3326V26.3326Z" fill="#231F20"/>
<path d="M212.607 37.6893C214.439 37.1918 216.076 36.1476 217.3 34.6957C217.809 34.1539 218.166 33.4865 218.332 32.7619C218.499 32.0373 218.471 31.2813 218.25 30.5712C217.514 31.4867 216.587 32.2299 215.533 32.7487C214.479 33.2675 213.325 33.5493 212.151 33.5743L212.607 37.6893Z" fill="#231F20"/>
<path d="M212.607 38.1645C212.507 38.1661 212.409 38.1324 212.331 38.0695C212.278 38.0307 212.233 37.9809 212.2 37.9236C212.168 37.8662 212.148 37.8026 212.141 37.7368L211.723 33.6218C211.716 33.5547 211.724 33.487 211.745 33.4231C211.767 33.3591 211.802 33.3005 211.848 33.2511C211.893 33.2016 211.949 33.1625 212.011 33.1363C212.073 33.1101 212.14 33.0974 212.208 33.0991H212.379C213.45 33.0375 214.496 32.7519 215.45 32.2608C216.404 31.7698 217.245 31.0841 217.918 30.2481C217.967 30.1809 218.034 30.1285 218.111 30.0967C218.188 30.0649 218.272 30.0548 218.355 30.0675C218.439 30.0802 218.519 30.115 218.586 30.1684C218.652 30.2218 218.704 30.2919 218.735 30.3716C218.984 31.1649 219.015 32.0108 218.824 32.8202C218.634 33.6296 218.229 34.3727 217.652 34.9713C216.362 36.5018 214.635 37.5998 212.702 38.117L212.607 38.1645ZM212.711 34.04L213.025 37.0811C214.538 36.524 215.887 35.596 216.949 34.3821C217.301 34.0121 217.575 33.5748 217.755 33.0963C217.934 32.6179 218.016 32.1081 217.994 31.5976C216.588 33.0268 214.71 33.895 212.711 34.04V34.04Z" fill="#231F20"/>
<path d="M210.716 26.5037C210.266 26.5297 209.822 26.395 209.462 26.1236C208.569 25.3823 209.737 22.4552 210.868 20.1459C210.923 20.0324 211.022 19.9457 211.141 19.9047C211.26 19.8637 211.391 19.8718 211.505 19.9273C211.618 19.9827 211.705 20.081 211.746 20.2004C211.787 20.3198 211.779 20.4506 211.723 20.564C210.659 22.7403 209.899 25.0116 210.099 25.4298C210.46 25.7244 211.609 25.4298 212.255 25.2207C212.312 25.196 212.374 25.183 212.436 25.1826C212.499 25.1822 212.561 25.1943 212.618 25.2182C212.676 25.2421 212.728 25.2774 212.772 25.3219C212.815 25.3664 212.85 25.4193 212.873 25.4773C212.92 25.5933 212.92 25.7233 212.872 25.839C212.823 25.9547 212.732 26.0467 212.616 26.095C212.011 26.3391 211.368 26.4773 210.716 26.5037V26.5037Z" fill="#231F20"/>
<path d="M207.087 20.0888C207.381 20.0888 207.619 19.4719 207.619 18.7108C207.619 17.9498 207.381 17.3328 207.087 17.3328C206.793 17.3328 206.555 17.9498 206.555 18.7108C206.555 19.4719 206.793 20.0888 207.087 20.0888Z" fill="#231F20"/>
<path d="M215.447 20.0888C215.741 20.0888 215.979 19.4719 215.979 18.7108C215.979 17.9498 215.741 17.3328 215.447 17.3328C215.154 17.3328 214.915 17.9498 214.915 18.7108C214.915 19.4719 215.154 20.0888 215.447 20.0888Z" fill="#231F20"/>
<path d="M212.531 29.7729C211.419 29.7777 210.323 29.4997 209.348 28.9651C209.295 28.932 209.249 28.8888 209.213 28.838C209.176 28.7871 209.15 28.7296 209.136 28.6687C209.122 28.6078 209.12 28.5448 209.13 28.4831C209.141 28.4214 209.163 28.3624 209.196 28.3094C209.229 28.2563 209.272 28.2103 209.323 28.174C209.374 28.1376 209.431 28.1116 209.492 28.0975C209.553 28.0834 209.616 28.0814 209.678 28.0917C209.739 28.1019 209.798 28.1242 209.852 28.1573C210.831 28.6895 211.947 28.916 213.056 28.8076C214.165 28.6992 215.217 28.2608 216.075 27.5491C216.124 27.5104 216.181 27.4821 216.241 27.4659C216.302 27.4497 216.365 27.4459 216.427 27.4548C216.489 27.4637 216.549 27.485 216.603 27.5175C216.656 27.5501 216.703 27.5931 216.74 27.6441C216.816 27.7438 216.85 27.8697 216.834 27.9944C216.818 28.1191 216.753 28.2323 216.654 28.3094C215.484 29.2484 214.031 29.7642 212.531 29.7729Z" fill="#231F20"/>
<path d="M36.7387 218.778L258.22 108.31C258.82 107.976 259.264 107.416 259.453 106.755C259.642 106.094 259.56 105.385 259.227 104.784V104.784C258.891 104.185 258.332 103.743 257.672 103.554C257.012 103.366 256.304 103.446 255.702 103.777L34.183 214.255C33.5901 214.597 33.1572 215.16 32.9791 215.821C32.801 216.482 32.8922 217.187 33.2329 217.781V217.781C33.5668 218.377 34.123 218.816 34.78 219.003C35.4369 219.19 36.1411 219.109 36.7387 218.778V218.778Z" fill="white"/>
<path d="M35.4846 219.596C34.8028 219.596 34.1401 219.37 33.6005 218.953C33.0609 218.537 32.675 217.952 32.5033 217.292C32.3315 216.632 32.3837 215.934 32.6516 215.307C32.9195 214.68 33.3879 214.159 33.9834 213.827L255.484 103.339C256.198 102.951 257.036 102.86 257.817 103.086C258.598 103.312 259.258 103.837 259.654 104.546C259.852 104.9 259.977 105.288 260.024 105.69C260.072 106.092 260.039 106.499 259.929 106.888C259.818 107.277 259.633 107.641 259.382 107.958C259.131 108.276 258.82 108.54 258.467 108.737L36.9667 219.216C36.5126 219.465 36.0028 219.596 35.4846 219.596V219.596ZM256.966 103.948C256.609 103.946 256.259 104.038 255.949 104.214L34.4395 214.692C33.9638 214.97 33.6166 215.424 33.4727 215.957C33.3289 216.489 33.3999 217.056 33.6704 217.536C33.941 218.016 34.3894 218.371 34.919 218.523C35.4486 218.676 36.0168 218.614 36.5011 218.351V218.351L258.001 107.863C258.351 107.656 258.632 107.352 258.811 106.987C258.991 106.622 259.06 106.214 259.01 105.81C258.961 105.407 258.795 105.027 258.533 104.716C258.271 104.406 257.925 104.178 257.536 104.062C257.352 103.996 257.16 103.957 256.966 103.948V103.948Z" fill="#231F20"/>
<path d="M249.375 95.1475L228.473 119.524C228.473 119.524 230.022 126.709 228.587 127.393C227.152 128.077 219.751 130.491 218.611 128.59C217.918 127.258 217.653 125.745 217.851 124.257L215.951 124.114C215.951 124.114 215.219 121.054 216.701 119.239C218.184 117.424 238.268 90.5288 238.268 90.5288" fill="white"/>
<path d="M220.73 129.807C219.552 129.807 218.602 129.55 218.193 128.856C217.507 127.589 217.2 126.15 217.31 124.713L215.884 124.618C215.781 124.609 215.683 124.567 215.604 124.499C215.526 124.43 215.471 124.339 215.447 124.238C215.447 124.105 214.668 120.921 216.303 118.935C217.766 117.148 237.651 90.5193 237.85 90.2437C237.932 90.1515 238.046 90.0936 238.169 90.0812C238.292 90.0689 238.415 90.1031 238.514 90.177C238.613 90.251 238.681 90.3593 238.704 90.4807C238.727 90.6021 238.704 90.7278 238.639 90.8329C237.812 91.9353 218.535 117.747 217.053 119.562C216.017 120.826 216.207 122.86 216.331 123.667L217.88 123.772C217.947 123.776 218.014 123.795 218.074 123.826C218.135 123.857 218.188 123.9 218.231 123.953C218.273 124.006 218.303 124.067 218.321 124.132C218.339 124.197 218.344 124.266 218.336 124.333C218.149 125.709 218.391 127.109 219.029 128.343C219.856 129.721 226.459 127.859 228.378 126.956C228.938 126.69 228.758 123.154 227.988 119.638C227.974 119.565 227.976 119.489 227.994 119.417C228.012 119.345 228.046 119.277 228.093 119.22L248.995 94.8434C249.036 94.7947 249.087 94.7547 249.145 94.7258C249.202 94.6968 249.264 94.6794 249.328 94.6745C249.392 94.6697 249.456 94.6775 249.517 94.6975C249.578 94.7175 249.635 94.7493 249.683 94.7911C249.732 94.8329 249.772 94.8839 249.801 94.9411C249.83 94.9984 249.847 95.0608 249.852 95.1248C249.857 95.1887 249.849 95.253 249.829 95.314C249.809 95.375 249.777 95.4314 249.736 95.4801L228.986 119.666C229.49 122.061 230.345 127.108 228.786 127.839C228.15 128.134 223.713 129.807 220.73 129.807Z" fill="#231F20"/>
<path d="M47.94 166.984C63.9543 166.979 79.8662 164.432 95.0827 159.439C117.457 152.092 130.682 142.104 131.233 141.686C131.591 141.425 131.893 141.095 132.121 140.715C132.35 140.336 132.5 139.915 132.563 139.476C132.627 139.038 132.602 138.591 132.491 138.162C132.379 137.734 132.183 137.331 131.914 136.98C131.645 136.628 131.309 136.333 130.924 136.113C130.54 135.893 130.116 135.752 129.676 135.698C129.237 135.644 128.791 135.679 128.365 135.8C127.939 135.921 127.541 136.125 127.195 136.402C126.958 136.583 114.046 146.257 92.7455 153.204C64.4875 162.416 34.08 162.704 5.65225 154.031C4.80688 153.779 3.89603 153.873 3.12008 154.293C2.34414 154.713 1.76666 155.424 1.51468 156.269C1.26271 157.115 1.35688 158.026 1.77647 158.802C2.19607 159.578 2.90673 160.156 3.75211 160.408C18.08 164.753 32.9682 166.969 47.94 166.984V166.984Z" fill="white"/>
<path d="M47.94 167.469C32.9142 167.449 17.9723 165.227 3.5906 160.874C2.8638 160.661 2.21698 160.237 1.7331 159.654C1.24922 159.071 0.950344 158.358 0.8748 157.604C0.799255 156.85 0.950488 156.091 1.3091 155.424C1.66772 154.757 2.21737 154.213 2.88755 153.86C3.7628 153.394 4.78566 153.288 5.73777 153.565C34.0738 162.202 64.3795 161.914 92.546 152.739C113.647 145.849 126.331 136.402 126.853 136.003C127.251 135.697 127.705 135.473 128.19 135.344C128.675 135.214 129.181 135.182 129.678 135.249C130.175 135.316 130.654 135.481 131.088 135.735C131.521 135.988 131.9 136.325 132.202 136.725C132.508 137.123 132.732 137.578 132.861 138.063C132.991 138.548 133.023 139.054 132.956 139.551C132.888 140.048 132.723 140.528 132.47 140.961C132.217 141.394 131.88 141.773 131.48 142.076C130.929 142.503 117.675 152.53 95.1872 159.904C79.9399 164.921 63.9909 167.474 47.94 167.469V167.469ZM4.73069 154.383C4.06442 154.407 3.42786 154.665 2.93173 155.11C2.43561 155.556 2.11132 156.161 2.01529 156.821C1.91927 157.481 2.05757 158.154 2.40615 158.722C2.75472 159.291 3.29151 159.719 3.92313 159.933C18.2123 164.26 33.0581 166.469 47.9875 166.49C63.9508 166.496 79.8131 163.959 94.9782 158.973C117.305 151.636 130.435 141.715 130.986 141.296C131.285 141.069 131.536 140.784 131.722 140.457C131.908 140.13 132.026 139.769 132.069 139.396C132.166 138.65 131.966 137.896 131.51 137.298C131.054 136.7 130.381 136.306 129.637 136.203C129.269 136.15 128.894 136.173 128.534 136.269C128.175 136.365 127.839 136.534 127.547 136.763C127.005 137.162 114.198 146.704 92.9545 153.641C64.5947 162.884 34.0791 163.176 5.54776 154.478C5.28166 154.406 5.00626 154.374 4.73069 154.383V154.383Z" fill="#231F20"/>
<path d="M28.1785 150.182C28.1314 150.191 28.0831 150.191 28.036 150.182C27.9168 150.145 27.8171 150.062 27.7584 149.952C27.6997 149.842 27.6868 149.713 27.7225 149.593C28.3685 147.578 29.1381 145.497 30.8292 144.157C33.2139 142.256 36.4727 142.522 39.5984 142.96L43.9592 143.568C44.0847 143.587 44.1977 143.654 44.2741 143.755C44.3505 143.856 44.3841 143.984 44.3678 144.109C44.3467 144.233 44.2785 144.344 44.1775 144.418C44.0765 144.493 43.9506 144.525 43.8262 144.509L39.4654 143.9C36.5392 143.501 33.5084 143.235 31.4183 144.908C29.9361 146.077 29.2331 148.006 28.6346 149.878C28.5981 149.969 28.5351 150.047 28.4537 150.101C28.3723 150.155 28.2763 150.183 28.1785 150.182Z" fill="#D1D3D4"/>
<path d="M91.0544 140.403C90.9886 140.402 90.9236 140.389 90.8633 140.363C90.8029 140.336 90.7484 140.299 90.7029 140.251C88.198 137.594 84.8973 135.823 81.2985 135.206C77.6998 134.589 73.998 135.159 70.7513 136.83C70.6404 136.89 70.5101 136.904 70.3889 136.869C70.2678 136.833 70.1657 136.751 70.1053 136.64C70.0448 136.529 70.0308 136.398 70.0665 136.277C70.1021 136.156 70.1844 136.054 70.2953 135.993C73.7254 134.234 77.6337 133.634 81.4334 134.285C85.2331 134.937 88.7191 136.803 91.3679 139.605C91.431 139.673 91.4727 139.758 91.4881 139.849C91.5035 139.941 91.4917 140.035 91.4543 140.119C91.417 140.204 91.3556 140.276 91.2778 140.327C91.1999 140.377 91.1091 140.404 91.0164 140.403H91.0544Z" fill="#D1D3D4"/>
<path d="M56.9847 150.04C56.9088 150.039 56.8342 150.02 56.7667 149.985C56.6991 149.951 56.6404 149.901 56.5952 149.84C56.523 149.737 56.4936 149.61 56.5131 149.486C56.5326 149.362 56.5995 149.251 56.6997 149.175C59.7109 146.968 63.3241 145.735 67.0555 145.64C67.1185 145.636 67.1817 145.645 67.241 145.666C67.3004 145.688 67.3545 145.722 67.4001 145.766C67.4456 145.81 67.4816 145.862 67.5057 145.921C67.5298 145.979 67.5415 146.042 67.54 146.105C67.5426 146.168 67.5324 146.231 67.5102 146.289C67.488 146.348 67.4541 146.402 67.4106 146.447C67.3671 146.492 67.3149 146.528 67.2572 146.553C67.1994 146.577 67.1373 146.59 67.0745 146.59C63.5382 146.684 60.1146 147.854 57.2602 149.945C57.1798 150.003 57.0839 150.036 56.9847 150.04V150.04Z" fill="#D1D3D4"/>
<path d="M110.075 141.639C109.36 140.519 108.263 139.698 106.987 139.329C104.984 138.559 102.883 138.073 100.745 137.885" fill="white"/>
<path d="M110.075 142.161C109.988 142.162 109.903 142.138 109.829 142.092C109.755 142.047 109.696 141.982 109.657 141.905C108.985 140.893 107.974 140.155 106.807 139.823C104.845 139.052 102.786 138.56 100.688 138.36C100.562 138.349 100.446 138.288 100.365 138.19C100.284 138.093 100.244 137.968 100.256 137.842C100.267 137.716 100.328 137.6 100.425 137.518C100.522 137.437 100.648 137.398 100.774 137.41C102.954 137.607 105.096 138.106 107.139 138.892C108.53 139.294 109.721 140.199 110.483 141.429C110.54 141.542 110.549 141.672 110.51 141.791C110.471 141.91 110.386 142.009 110.274 142.066C110.217 142.114 110.148 142.146 110.075 142.161V142.161Z" fill="#D1D3D4"/>
<path d="M241.983 39.9892C241.983 39.9892 264.547 71.5693 264.785 77.452C265.022 83.3346 234.829 114.107 234.829 114.107L222.792 104.746C222.792 104.746 244.187 78.3263 243.788 75.7223C243.389 73.1183 229.775 54.7291 229.775 54.7291C229.775 54.7291 230.848 42.6786 241.983 39.9892Z" fill="black"/>
<path d="M202.659 73.5745C202.659 73.5745 199.543 50.9277 203.296 35.361L208.54 34.8478C208.54 34.8478 206.146 50.8232 208.417 75.3137L202.659 73.5745Z" fill="#231F20"/>
<path d="M208.436 75.7888C208.392 75.7978 208.347 75.7978 208.303 75.7888L202.517 74.0497C202.431 74.024 202.355 73.9747 202.296 73.9075C202.237 73.8402 202.198 73.7578 202.184 73.6696C202.184 73.4415 199.106 50.7851 202.859 35.2754C202.884 35.1809 202.938 35.0964 203.012 35.0335C203.087 34.9706 203.18 34.9323 203.277 34.9238L208.512 34.4106C208.583 34.4026 208.656 34.4114 208.723 34.4361C208.791 34.4608 208.852 34.5009 208.901 34.5532C208.949 34.607 208.985 34.6705 209.007 34.7393C209.028 34.8082 209.034 34.8808 209.025 34.9523C209.025 35.1139 206.669 51.1083 208.911 75.2947C208.919 75.3716 208.907 75.4493 208.877 75.5206C208.847 75.592 208.8 75.6548 208.74 75.7033C208.652 75.7679 208.544 75.7983 208.436 75.7888V75.7888ZM203.087 73.2039L207.904 74.6579C206.004 53.3796 207.619 38.4781 208.008 35.38L203.705 35.7981C200.341 50.1484 202.745 70.4954 203.087 73.2039V73.2039Z" fill="#231F20"/>
<path d="M229.423 35.9787C225.842 49.7375 224.044 63.8998 224.074 78.1172L229.832 77.585C229.832 77.585 229.423 57.0479 235.598 37.8129L229.423 35.9787Z" fill="#231F20"/>
<path d="M224.074 78.5924C224.016 78.5936 223.959 78.5832 223.905 78.562C223.851 78.5408 223.802 78.5092 223.761 78.4688C223.71 78.4256 223.669 78.3718 223.641 78.311C223.613 78.2502 223.599 78.1841 223.599 78.1172C223.586 63.857 225.383 49.6528 228.948 35.8456C228.987 35.7263 229.068 35.6251 229.176 35.5605C229.293 35.5184 229.42 35.5184 229.537 35.5605L235.703 37.3947C235.764 37.4132 235.821 37.4437 235.87 37.4845C235.919 37.5253 235.959 37.5756 235.988 37.6323C236.013 37.6892 236.026 37.7507 236.026 37.8129C236.026 37.875 236.013 37.9366 235.988 37.9934C229.917 56.9339 230.24 77.4044 230.288 77.6135C230.288 77.7328 230.245 77.8481 230.166 77.9375C230.088 78.027 229.978 78.0842 229.86 78.0982L224.103 78.6304L224.074 78.5924ZM229.775 36.5679C226.36 49.9807 224.612 63.7633 224.568 77.604L229.376 77.1573C229.376 74.0877 229.537 55.5464 235.009 38.136L229.775 36.5679Z" fill="#231F20"/>
<path d="M228.045 15.2706C228.045 15.5462 207.258 15.7457 201.443 15.7933C201.255 15.784 201.072 15.7328 200.906 15.6434C200.74 15.5539 200.596 15.4286 200.485 15.2764C200.374 15.1243 200.298 14.9492 200.264 14.7641C200.229 14.5789 200.236 14.3883 200.284 14.2062V14.2062C200.342 13.9418 200.486 13.7044 200.695 13.5321C200.903 13.3597 201.164 13.2624 201.434 13.2558H204.617C204.617 13.2558 203.771 2.64042 214.649 1.21489C225.528 -0.210631 227.998 9.20733 228.045 15.2706Z" fill="white"/>
<path d="M201.396 16.2874C201.151 16.2851 200.91 16.2285 200.69 16.1217C200.47 16.0149 200.276 15.8605 200.123 15.6697C199.948 15.4529 199.825 15.1986 199.764 14.9267C199.703 14.6548 199.706 14.3725 199.771 14.1016C199.843 13.7214 200.044 13.3776 200.34 13.1283C200.636 12.8791 201.009 12.7395 201.396 12.7331H204.075C204.075 10.5093 204.759 1.97517 214.526 0.692195C218.383 0.188509 221.528 0.967797 223.894 3.02055C227.96 6.53685 228.482 12.7521 228.511 15.2706C228.511 15.4019 228.46 15.528 228.368 15.6222C228.159 15.8408 227.941 16.0594 201.386 16.2874H201.396ZM201.396 13.712C201.233 13.7221 201.078 13.7865 200.955 13.895C200.833 14.0035 200.751 14.1499 200.721 14.3107C200.694 14.4392 200.694 14.5723 200.724 14.7005C200.754 14.8286 200.811 14.9486 200.892 15.052C200.951 15.1306 201.027 15.1947 201.114 15.2392C201.201 15.2837 201.298 15.3075 201.396 15.3086V15.3086C215.789 15.185 225.537 15.014 227.532 14.8619C227.447 12.2675 226.82 6.84096 223.267 3.76182C221.119 1.90864 218.231 1.19588 214.716 1.67106C204.436 3.01105 205.073 12.7711 205.111 13.1798C205.115 13.2475 205.105 13.3153 205.082 13.3791C205.059 13.4429 205.023 13.5014 204.977 13.5511C204.931 13.6008 204.875 13.6407 204.813 13.6683C204.751 13.696 204.684 13.7108 204.617 13.712H201.396Z" fill="#231F20"/>
<path d="M208.721 13.2178C208.721 13.2178 208.35 6.99301 210.621 3.02055C212.132 0.331062 216.322 -0.305672 217.338 0.834748C217.975 1.54751 215.21 2.83998 214.402 6.05217C214.034 8.42311 213.843 10.8184 213.832 13.2178" fill="white"/>
<path d="M208.721 13.712C208.596 13.7121 208.475 13.6636 208.385 13.5768C208.295 13.49 208.241 13.3715 208.236 13.2463C208.236 12.9897 207.885 6.83146 210.137 2.79247C210.664 1.97168 211.371 1.28109 212.203 0.772496C213.036 0.263907 213.973 -0.0494655 214.944 -0.144109C215.415 -0.245397 215.904 -0.237243 216.371 -0.120273C216.839 -0.0033019 217.274 0.219372 217.642 0.530638C218.222 1.16737 217.642 1.85163 216.968 2.57389C215.958 3.58027 215.219 4.82588 214.82 6.19472C214.46 8.52821 214.273 10.8852 214.26 13.2463C214.263 13.3115 214.252 13.3766 214.228 13.4373C214.204 13.498 214.167 13.553 214.121 13.5987C214.074 13.6444 214.019 13.6798 213.957 13.7026C213.896 13.7254 213.831 13.7351 213.766 13.731C213.636 13.7285 213.513 13.6753 213.423 13.5829C213.332 13.4905 213.281 13.3663 213.281 13.2368C213.289 10.7955 213.486 8.35847 213.87 5.94763C214.308 4.42959 215.121 3.04675 216.236 1.92765C216.47 1.68238 216.68 1.41504 216.863 1.12936C216.316 0.808533 215.669 0.703477 215.048 0.834752C214.231 0.90796 213.442 1.16585 212.739 1.58895C212.036 2.01205 211.439 2.5893 210.992 3.27715C208.835 7.07855 209.168 13.1513 209.168 13.2083C209.175 13.3379 209.132 13.4653 209.047 13.5632C208.961 13.661 208.841 13.7213 208.711 13.731L208.721 13.712Z" fill="#231F20"/>
<path d="M227.171 13.693H204.579C204.453 13.693 204.332 13.6429 204.243 13.5538C204.154 13.4647 204.104 13.3438 204.104 13.2178C204.104 13.0918 204.154 12.9709 204.243 12.8818C204.332 12.7927 204.453 12.7426 204.579 12.7426H227.171C227.297 12.7426 227.418 12.7927 227.507 12.8818C227.596 12.9709 227.646 13.0918 227.646 13.2178C227.646 13.3438 227.596 13.4647 227.507 13.5538C227.418 13.6429 227.297 13.693 227.171 13.693Z" fill="#231F20"/>
<path d="M198.118 70.885C198.008 70.8829 197.901 70.843 197.817 70.7722C197.732 70.7013 197.674 70.6037 197.653 70.4954C197.529 69.8016 194.66 53.3891 196.075 45.026C196.099 44.9022 196.169 44.7922 196.272 44.7195C196.375 44.6467 196.502 44.6169 196.627 44.6364C196.75 44.6596 196.86 44.7301 196.933 44.833C197.006 44.9359 197.036 45.0631 197.016 45.1876C195.619 53.3891 198.565 70.1533 198.593 70.3243C198.604 70.3861 198.603 70.4495 198.589 70.5107C198.575 70.572 198.549 70.6299 198.513 70.6811C198.477 70.7324 198.431 70.776 198.378 70.8093C198.325 70.8427 198.266 70.8652 198.204 70.8755L198.118 70.885Z" fill="#231F20"/>
<path d="M243.817 76.1975C243.737 76.1992 243.658 76.1799 243.588 76.1415C243.518 76.1032 243.459 76.0471 243.418 75.9789L233.831 61.0964C233.763 60.9905 233.74 60.862 233.767 60.7391C233.794 60.6162 233.868 60.5089 233.974 60.4407C234.025 60.4044 234.084 60.3793 234.146 60.3668C234.208 60.3543 234.271 60.3548 234.333 60.3682C234.394 60.3816 234.453 60.4076 234.504 60.4446C234.555 60.4816 234.597 60.5288 234.629 60.5832L244.216 75.4657C244.283 75.5716 244.307 75.7001 244.28 75.8231C244.253 75.946 244.179 76.0533 244.073 76.1215C243.996 76.1695 243.907 76.1957 243.817 76.1975V76.1975Z" fill="#231F20"/>
<path d="M215.647 103.834C215.229 103.834 214.801 103.834 214.383 103.777C210.962 103.471 207.795 101.841 205.559 99.2324C203.322 96.6242 202.193 93.2451 202.413 89.816L203.144 77.6705C203.145 77.6044 203.162 77.5394 203.191 77.4802C203.221 77.4211 203.263 77.3692 203.315 77.3284C203.365 77.2878 203.423 77.2576 203.485 77.2397C203.547 77.2217 203.612 77.2164 203.676 77.2239L228.948 80.2555C229.068 80.2675 229.179 80.3258 229.257 80.418C229.335 80.5102 229.374 80.6291 229.366 80.7497L228.844 91.27C228.671 94.6563 227.206 97.8471 224.75 100.185C222.295 102.522 219.037 103.828 215.647 103.834V103.834ZM204.056 78.2312L203.372 89.892C203.283 91.5013 203.513 93.1124 204.046 94.6331C204.58 96.1538 205.408 97.5545 206.483 98.7551C207.558 99.9557 208.859 100.933 210.312 101.63C211.764 102.328 213.34 102.733 214.949 102.822C216.558 102.91 218.168 102.681 219.688 102.147C221.209 101.613 222.609 100.785 223.809 99.7093C225.009 98.634 225.986 97.3328 226.684 95.8799C227.381 94.427 227.786 92.8508 227.874 91.2415L228.378 81.1678L204.056 78.2312Z" fill="white"/>
<path d="M184.646 186.124L163.393 182.684L162.509 213.542C162.509 213.542 149.55 217.752 149.664 220.09C149.826 223.53 179.373 222.114 179.373 222.114L184.646 186.124Z" fill="white"/>
<path d="M166.728 222.941H164.6C149.332 222.779 149.237 220.955 149.208 220.175C149.208 219.548 150.016 217.191 162.053 213.238L162.937 182.722C162.939 182.652 162.956 182.584 162.987 182.521C163.018 182.459 163.063 182.404 163.117 182.361C163.172 182.318 163.235 182.287 163.302 182.269C163.368 182.251 163.438 182.247 163.507 182.256L184.722 185.697C184.785 185.706 184.846 185.728 184.9 185.76C184.955 185.793 185.003 185.836 185.041 185.888C185.079 185.939 185.106 185.997 185.122 186.059C185.137 186.121 185.14 186.185 185.131 186.248L179.886 222.238C179.871 222.351 179.815 222.455 179.73 222.532C179.645 222.609 179.535 222.652 179.421 222.656C179.354 222.608 173.302 222.941 166.728 222.941ZM163.877 183.302L163.003 213.599C163.001 213.7 162.968 213.798 162.909 213.879C162.849 213.961 162.766 214.022 162.671 214.055C156.609 216.022 150.111 218.902 150.168 220.118C150.168 220.289 150.643 221.801 164.59 221.953C170.927 222.01 177.312 221.763 178.955 221.686L184.076 186.571L163.877 183.302Z" fill="#231F20"/>
<path d="M254.096 171.004L240.111 188.785L262.581 206.31C262.581 206.31 258.4 216.346 259.55 217.714C260.699 219.083 278.893 200.855 278.893 200.855L254.096 171.004Z" fill="white"/>
<path d="M259.73 218.246C259.532 218.239 259.344 218.154 259.208 218.009C258.03 216.64 260.661 209.741 262.011 206.471L239.836 189.175C239.784 189.135 239.741 189.085 239.71 189.028C239.679 188.971 239.66 188.907 239.655 188.842C239.639 188.714 239.673 188.585 239.75 188.481L253.707 170.672C253.752 170.614 253.81 170.567 253.875 170.534C253.941 170.501 254.013 170.483 254.087 170.482C254.232 170.492 254.367 170.557 254.467 170.662L279.302 200.513C279.385 200.604 279.431 200.722 279.431 200.845C279.431 200.968 279.385 201.087 279.302 201.178C275.236 205.188 262.001 218.246 259.73 218.246ZM240.795 188.728L262.885 205.958C262.967 206.025 263.026 206.116 263.053 206.219C263.08 206.321 263.074 206.429 263.037 206.528C260.946 211.546 259.55 216.289 259.863 217.267C261.536 216.792 270.314 208.714 278.238 200.826L254.106 171.812L240.795 188.728Z" fill="#231F20"/>
<path d="M181.663 193.281H181.587L164.343 190.734C164.219 190.713 164.109 190.644 164.034 190.543C163.96 190.442 163.927 190.316 163.944 190.192C163.952 190.131 163.972 190.071 164.004 190.018C164.035 189.964 164.077 189.918 164.126 189.881C164.176 189.843 164.232 189.816 164.292 189.801C164.352 189.786 164.415 189.783 164.476 189.793L181.748 192.33C181.874 192.339 181.992 192.398 182.074 192.493C182.157 192.588 182.199 192.713 182.19 192.839C182.181 192.965 182.123 193.082 182.027 193.165C181.932 193.248 181.808 193.289 181.682 193.281H181.663Z" fill="#D1D3D4"/>
<path d="M180.998 197.025H180.941L164.704 194.858C164.578 194.84 164.464 194.774 164.388 194.672C164.311 194.57 164.278 194.442 164.296 194.316C164.313 194.19 164.38 194.077 164.482 194C164.583 193.923 164.711 193.89 164.837 193.908L181.064 196.075C181.19 196.083 181.308 196.142 181.39 196.237C181.473 196.333 181.515 196.457 181.506 196.583C181.497 196.709 181.439 196.826 181.343 196.909C181.248 196.992 181.124 197.034 180.998 197.025V197.025Z" fill="#D1D3D4"/>
<path d="M248.681 192.007C248.575 192.003 248.472 191.966 248.386 191.903C248.289 191.824 248.226 191.71 248.211 191.586C248.197 191.461 248.233 191.336 248.31 191.237L258.21 178.664C258.244 178.605 258.29 178.554 258.346 178.515C258.401 178.475 258.464 178.448 258.531 178.435C258.598 178.422 258.667 178.424 258.733 178.44C258.799 178.456 258.861 178.486 258.914 178.528C258.968 178.569 259.012 178.622 259.043 178.683C259.075 178.743 259.093 178.809 259.096 178.877C259.1 178.945 259.088 179.013 259.063 179.076C259.039 179.14 259 179.197 258.951 179.244L249.061 191.827C249.014 191.882 248.956 191.927 248.891 191.958C248.825 191.99 248.754 192.006 248.681 192.007V192.007Z" fill="#D1D3D4"/>
<path d="M251.902 193.281C251.79 193.28 251.682 193.24 251.598 193.167C251.502 193.084 251.443 192.967 251.432 192.841C251.421 192.715 251.46 192.589 251.541 192.492L260.614 181.686C260.699 181.606 260.81 181.56 260.927 181.557C261.043 181.553 261.157 181.593 261.246 181.668C261.336 181.743 261.394 181.849 261.411 181.964C261.427 182.08 261.401 182.197 261.336 182.295L252.263 193.11C252.217 193.161 252.162 193.203 252.1 193.232C252.038 193.262 251.97 193.278 251.902 193.281V193.281Z" fill="#D1D3D4"/>
</g>
<defs>
<clipPath id="clip0_981_103">
<rect width="279" height="231.103" fill="white"/>
</clipPath>
</defs>
</svg>
