<svg width="302" height="100" viewBox="0 0 302 100" fill="none" xmlns="http://www.w3.org/2000/svg">
<g clip-path="url(#clip0_1637_63)">
<line x1="100.5" x2="100.5" y2="100" stroke="#47CCA0"/>
<circle cx="49.9762" cy="20.9999" r="7" stroke="#47CCA0" stroke-width="4"/>
<circle cx="17" cy="78.1194" r="7" stroke="#47CCA0" stroke-width="4"/>
<circle cx="82.9524" cy="78.1194" r="7" stroke="#47CCA0" stroke-width="4"/>
<circle cx="74.1195" cy="62.809" r="7" stroke="#47CCA0" stroke-width="4"/>
<circle cx="25.833" cy="62.809" r="7" stroke="#47CCA0" stroke-width="4"/>
<rect x="40.4198" y="18.3206" width="13.9631" height="80.1263" rx="6.98155" transform="rotate(-30 40.4198 18.3206)" stroke="#47CCA0" stroke-width="4"/>
<rect x="47.4829" y="11.339" width="13.9631" height="80.1263" rx="6.98155" transform="rotate(30 47.4829 11.339)" stroke="#47CCA0" stroke-width="4"/>
<rect x="19" y="69.75" width="14" height="62" rx="7" transform="rotate(-90 19 69.75)" stroke="#47CCA0" stroke-width="4"/>
<path fill-rule="evenodd" clip-rule="evenodd" d="M302 1H100V99H302V1ZM119.448 65.56C120.595 66.0933 121.875 66.36 123.288 66.36C124.755 66.36 126.008 66.12 127.048 65.64C128.115 65.1333 129.075 64.4 129.928 63.44L130.128 63.6C129.968 63.8133 129.648 64.16 129.168 64.64V66.36C130.635 66.36 131.701 66.12 132.368 65.64C133.035 65.1333 133.368 64.3333 133.368 63.24V52.88C133.368 50.64 132.608 48.88 131.088 47.6C129.595 46.2933 127.488 45.64 124.768 45.64C123.355 45.64 122.035 45.84 120.808 46.24C119.608 46.6133 118.648 47.1333 117.928 47.8C117.208 48.4667 116.848 49.1867 116.848 49.96C116.848 50.4133 117.021 50.84 117.368 51.24C117.741 51.64 118.195 51.9333 118.728 52.12C119.315 51.16 120.088 50.44 121.048 49.96C122.008 49.4533 123.128 49.2 124.408 49.2C125.848 49.2 126.968 49.5467 127.768 50.24C128.568 50.9067 128.968 51.8267 128.968 53V54.12C129.261 54.3333 129.648 54.68 130.128 55.16L129.928 55.36C128.275 53.7067 126.235 52.88 123.808 52.88C122.288 52.88 120.915 53.16 119.688 53.72C118.461 54.2533 117.488 55.04 116.768 56.08C116.075 57.0933 115.728 58.2933 115.728 59.68C115.728 61.04 116.061 62.2267 116.728 63.24C117.395 64.2533 118.301 65.0267 119.448 65.56ZM127.768 62.12C126.941 62.7067 125.795 63 124.328 63C123.021 63 121.995 62.72 121.248 62.16C120.501 61.5733 120.128 60.7333 120.128 59.64C120.128 58.5733 120.501 57.7467 121.248 57.16C122.021 56.5467 123.061 56.24 124.368 56.24C125.808 56.24 126.941 56.5467 127.768 57.16C128.621 57.7467 129.048 58.5733 129.048 59.64C129.048 60.7067 128.621 61.5333 127.768 62.12ZM141.665 65.44C142.998 66.0533 144.518 66.36 146.225 66.36C147.798 66.36 149.198 66.1333 150.425 65.68C151.678 65.2267 152.638 64.6 153.305 63.8C153.998 62.9733 154.345 62.04 154.345 61C154.345 60.2533 154.051 59.6533 153.465 59.2C152.878 58.72 152.118 58.48 151.185 58.48L150.625 58.52C150.625 59.6667 150.225 60.6133 149.425 61.36C148.625 62.08 147.598 62.44 146.345 62.44C145.065 62.44 144.011 62.1067 143.185 61.44C142.385 60.7733 141.985 59.9067 141.985 58.84V53.4C141.985 52.2533 142.385 51.32 143.185 50.6C143.985 49.88 145.011 49.52 146.265 49.52C147.518 49.52 148.545 49.8933 149.345 50.64C150.145 51.3867 150.545 52.3467 150.545 53.52C151.638 53.6 152.518 53.4133 153.185 52.96C153.878 52.48 154.225 51.8267 154.225 51C154.225 49.96 153.878 49.04 153.185 48.24C152.518 47.4133 151.571 46.7733 150.345 46.32C149.118 45.8667 147.718 45.64 146.145 45.64C144.465 45.64 142.971 45.96 141.665 46.6C140.358 47.24 139.331 48.1333 138.585 49.28C137.865 50.4267 137.505 51.7333 137.505 53.2V59.12C137.505 60.5067 137.865 61.76 138.585 62.88C139.331 63.9733 140.358 64.8267 141.665 65.44ZM162.89 45.64C160.063 45.64 158.65 46.8267 158.65 49.2V66.36C160.143 66.36 161.25 66.1333 161.97 65.68C162.69 65.2267 163.05 64.4933 163.05 63.48V53.76C163.05 52.48 163.383 51.44 164.05 50.64C164.743 49.84 165.663 49.44 166.81 49.44C168.73 49.44 169.69 50.6133 169.69 52.96V66.36C171.156 66.36 172.25 66.1333 172.97 65.68C173.69 65.2267 174.05 64.4933 174.05 63.48V53.64C174.05 52.2533 174.396 51.2133 175.09 50.52C175.81 49.8 176.69 49.44 177.73 49.44C178.716 49.44 179.45 49.76 179.93 50.4C180.41 51.0133 180.65 51.8667 180.65 52.96V66.36C182.143 66.36 183.25 66.1333 183.97 65.68C184.69 65.2267 185.05 64.4933 185.05 63.48V52.6C185.05 50.5733 184.516 48.9067 183.45 47.6C182.41 46.2933 180.97 45.64 179.13 45.64C177.796 45.64 176.623 45.9467 175.61 46.56C174.596 47.1467 173.743 47.9867 173.05 49.08C172.116 46.7867 170.49 45.64 168.17 45.64C166.89 45.64 165.783 45.9733 164.85 46.64C163.916 47.28 163.023 48.2267 162.17 49.48L161.97 49.32C162.156 48.9733 162.463 48.56 162.89 48.08V45.64ZM192.783 65.56C193.929 66.0933 195.209 66.36 196.623 66.36C198.089 66.36 199.342 66.12 200.382 65.64C201.449 65.1333 202.409 64.4 203.263 63.44L203.463 63.6C203.303 63.8133 202.983 64.16 202.503 64.64V66.36C203.969 66.36 205.036 66.12 205.702 65.64C206.369 65.1333 206.702 64.3333 206.702 63.24V52.88C206.702 50.64 205.943 48.88 204.423 47.6C202.929 46.2933 200.823 45.64 198.103 45.64C196.689 45.64 195.369 45.84 194.143 46.24C192.943 46.6133 191.982 47.1333 191.263 47.8C190.543 48.4667 190.183 49.1867 190.183 49.96C190.183 50.4133 190.356 50.84 190.702 51.24C191.076 51.64 191.529 51.9333 192.062 52.12C192.649 51.16 193.423 50.44 194.382 49.96C195.342 49.4533 196.463 49.2 197.743 49.2C199.183 49.2 200.303 49.5467 201.103 50.24C201.903 50.9067 202.303 51.8267 202.303 53V54.12C202.596 54.3333 202.983 54.68 203.463 55.16L203.263 55.36C201.609 53.7067 199.569 52.88 197.143 52.88C195.623 52.88 194.249 53.16 193.022 53.72C191.796 54.2533 190.823 55.04 190.103 56.08C189.409 57.0933 189.062 58.2933 189.062 59.68C189.062 61.04 189.396 62.2267 190.062 63.24C190.729 64.2533 191.636 65.0267 192.783 65.56ZM201.103 62.12C200.276 62.7067 199.129 63 197.663 63C196.356 63 195.329 62.72 194.583 62.16C193.836 61.5733 193.463 60.7333 193.463 59.64C193.463 58.5733 193.836 57.7467 194.583 57.16C195.356 56.5467 196.396 56.24 197.702 56.24C199.143 56.24 200.276 56.5467 201.103 57.16C201.956 57.7467 202.382 58.5733 202.382 59.64C202.382 60.7067 201.956 61.5333 201.103 62.12ZM212.865 38.56C212.118 39.1733 211.745 40.0533 211.745 41.2V66.36C213.238 66.36 214.358 66.1333 215.105 65.68C215.852 65.2267 216.225 64.4933 216.225 63.48V54C216.225 52.7467 216.705 51.6933 217.665 50.84C218.625 49.96 219.798 49.52 221.185 49.52C222.438 49.52 223.385 49.8667 224.025 50.56C224.692 51.2267 225.025 52.1067 225.025 53.2V66.36C226.518 66.36 227.638 66.1333 228.385 65.68C229.132 65.2267 229.505 64.4933 229.505 63.48V52.6C229.505 51.2933 229.212 50.1067 228.625 49.04C228.065 47.9733 227.265 47.1467 226.225 46.56C225.185 45.9467 223.972 45.64 222.585 45.64C221.092 45.64 219.745 45.9867 218.545 46.68C217.372 47.3467 216.358 48.28 215.505 49.48L215.265 49.32C215.505 48.9467 215.825 48.5333 216.225 48.08V37.64C214.758 37.64 213.638 37.9467 212.865 38.56ZM237.128 65.56C238.274 66.0933 239.554 66.36 240.968 66.36C242.434 66.36 243.688 66.12 244.728 65.64C245.794 65.1333 246.754 64.4 247.608 63.44L247.808 63.6C247.648 63.8133 247.328 64.16 246.848 64.64V66.36C248.314 66.36 249.381 66.12 250.048 65.64C250.714 65.1333 251.048 64.3333 251.048 63.24V52.88C251.048 50.64 250.288 48.88 248.768 47.6C247.274 46.2933 245.168 45.64 242.448 45.64C241.034 45.64 239.714 45.84 238.488 46.24C237.288 46.6133 236.328 47.1333 235.608 47.8C234.888 48.4667 234.528 49.1867 234.528 49.96C234.528 50.4133 234.701 50.84 235.048 51.24C235.421 51.64 235.874 51.9333 236.408 52.12C236.994 51.16 237.768 50.44 238.728 49.96C239.688 49.4533 240.808 49.2 242.088 49.2C243.528 49.2 244.648 49.5467 245.448 50.24C246.248 50.9067 246.648 51.8267 246.648 53V54.12C246.941 54.3333 247.328 54.68 247.808 55.16L247.608 55.36C245.954 53.7067 243.914 52.88 241.488 52.88C239.968 52.88 238.594 53.16 237.368 53.72C236.141 54.2533 235.168 55.04 234.448 56.08C233.754 57.0933 233.408 58.2933 233.408 59.68C233.408 61.04 233.741 62.2267 234.408 63.24C235.074 64.2533 235.981 65.0267 237.128 65.56ZM245.448 62.12C244.621 62.7067 243.474 63 242.008 63C240.701 63 239.674 62.72 238.928 62.16C238.181 61.5733 237.808 60.7333 237.808 59.64C237.808 58.5733 238.181 57.7467 238.928 57.16C239.701 56.5467 240.741 56.24 242.048 56.24C243.488 56.24 244.621 56.5467 245.448 57.16C246.301 57.7467 246.728 58.5733 246.728 59.64C246.728 60.7067 246.301 61.5333 245.448 62.12ZM258.297 42.56C258.883 43.0933 259.617 43.36 260.497 43.36C261.377 43.36 262.11 43.0933 262.697 42.56C263.283 42 263.577 41.3067 263.577 40.48C263.577 39.6533 263.283 38.9733 262.697 38.44C262.11 37.9067 261.377 37.64 260.497 37.64C259.617 37.64 258.883 37.9067 258.297 38.44C257.71 38.9733 257.417 39.6533 257.417 40.48C257.417 41.3067 257.71 42 258.297 42.56ZM252.457 73.36C253.337 74.0267 254.47 74.36 255.857 74.36C257.243 74.36 258.457 74.0533 259.497 73.44C260.537 72.8533 261.337 72.0267 261.897 70.96C262.457 69.92 262.737 68.76 262.737 67.48V45.64C261.243 45.64 260.123 45.8667 259.377 46.32C258.63 46.7733 258.257 47.5067 258.257 48.52V67.4C258.257 68.3867 258.003 69.1467 257.497 69.68C257.017 70.2133 256.283 70.48 255.297 70.48C253.937 70.48 252.87 70.0667 252.097 69.24C251.483 69.5867 251.177 70.1733 251.177 71C251.177 71.9333 251.603 72.72 252.457 73.36ZM271.629 65.56C272.776 66.0933 274.056 66.36 275.469 66.36C276.936 66.36 278.189 66.12 279.229 65.64C280.296 65.1333 281.256 64.4 282.109 63.44L282.309 63.6C282.149 63.8133 281.829 64.16 281.349 64.64V66.36C282.816 66.36 283.883 66.12 284.549 65.64C285.216 65.1333 285.549 64.3333 285.549 63.24V52.88C285.549 50.64 284.789 48.88 283.269 47.6C281.776 46.2933 279.669 45.64 276.949 45.64C275.536 45.64 274.216 45.84 272.989 46.24C271.789 46.6133 270.829 47.1333 270.109 47.8C269.389 48.4667 269.029 49.1867 269.029 49.96C269.029 50.4133 269.203 50.84 269.549 51.24C269.923 51.64 270.376 51.9333 270.909 52.12C271.496 51.16 272.269 50.44 273.229 49.96C274.189 49.4533 275.309 49.2 276.589 49.2C278.029 49.2 279.149 49.5467 279.949 50.24C280.749 50.9067 281.149 51.8267 281.149 53V54.12C281.443 54.3333 281.829 54.68 282.309 55.16L282.109 55.36C280.456 53.7067 278.416 52.88 275.989 52.88C274.469 52.88 273.096 53.16 271.869 53.72C270.643 54.2533 269.669 55.04 268.949 56.08C268.256 57.0933 267.909 58.2933 267.909 59.68C267.909 61.04 268.243 62.2267 268.909 63.24C269.576 64.2533 270.483 65.0267 271.629 65.56ZM279.949 62.12C279.123 62.7067 277.976 63 276.509 63C275.203 63 274.176 62.72 273.429 62.16C272.683 61.5733 272.309 60.7333 272.309 59.64C272.309 58.5733 272.683 57.7467 273.429 57.16C274.203 56.5467 275.243 56.24 276.549 56.24C277.989 56.24 279.123 56.5467 279.949 57.16C280.803 57.7467 281.229 58.5733 281.229 59.64C281.229 60.7067 280.803 61.5333 279.949 62.12Z" fill="#47CCA0"/>
</g>
<rect x="2" y="2" width="298" height="96" stroke="#47CCA0" stroke-width="4"/>
<defs>
<clipPath id="clip0_1637_63">
<rect width="302" height="100" fill="white"/>
</clipPath>
</defs>
</svg>
