<svg width="100" height="100" viewBox="0 0 100 100" fill="none" xmlns="http://www.w3.org/2000/svg">
<g clip-path="url(#clip0_1637_78)">
<circle cx="50" cy="50" r="48.5" stroke="#47CCA0" stroke-width="3"/>
<path fill-rule="evenodd" clip-rule="evenodd" d="M25.035 76.2211L25.2833 75.791C25.4828 75.3304 25.5933 74.8223 25.5933 74.2884C25.5933 72.1978 23.8986 70.503 21.808 70.503C20.4954 70.503 19.3388 71.1712 18.6598 72.1858L18.5063 72.4517C18.423 72.596 18.3503 72.7435 18.288 72.8934C18.1168 73.3251 18.0226 73.7957 18.0226 74.2884C18.0226 76.379 19.7174 78.0737 21.808 78.0737C22.6694 78.0737 23.4637 77.7859 24.0998 77.3013C24.4674 77.0127 24.7871 76.6505 25.035 76.2211ZM17.886 81.0648C14.4965 79.1079 13.1393 74.9826 14.5552 71.4527C14.7437 70.9708 14.9789 70.5123 15.2553 70.0827L22.4823 57.565C22.621 57.2878 22.7758 57.0201 22.9454 56.763L43.1531 21.7622C43.7868 20.25 44.9025 18.9253 46.4321 18.0422C47.6684 17.3284 49.0194 16.993 50.3509 17.0001C51.6831 16.9926 53.035 17.328 54.2721 18.0422C55.8017 18.9253 56.9174 20.25 57.5512 21.7623L85.662 70.4517C87.8075 74.1677 86.5343 78.9194 82.8182 81.0649C80.6816 82.2985 78.2025 82.4018 76.0733 81.5604C74.1001 80.8041 72.5132 79.2677 71.6899 77.3287L66.7535 68.7786H33.9508L28.8477 77.6173C28.3343 78.701 27.5781 79.6473 26.6492 80.3858C24.2224 82.3419 20.7472 82.7168 17.886 81.0648ZM38.3217 53.2079H29.6167L43.6584 28.8869C43.7955 29.1147 43.9439 29.3348 44.1029 29.5466L48.0427 36.3706L38.3217 53.2079ZM30.0721 64.7786H29.5933C27.5027 64.7786 25.808 63.0838 25.808 60.9932C25.808 59.3721 26.827 57.9891 28.2594 57.4496C28.6335 57.3259 29.0333 57.259 29.4488 57.259C31.5394 57.259 33.2342 58.9537 33.2342 61.0443C33.2342 61.594 33.117 62.1163 32.9063 62.5877L32.5174 63.2612C31.9453 64.0517 31.0753 64.6124 30.0721 64.7786ZM36.2818 64.7786C36.3445 64.6641 36.4044 64.5478 36.4614 64.4299L40.6311 57.2079H60.0731L64.0654 64.1228C64.1621 64.347 64.2689 64.5658 64.3855 64.7786H36.2818ZM72.8408 57.6233C74.0637 58.2508 74.9004 59.5243 74.9004 60.9932C74.9004 63.0838 73.2056 64.7786 71.1151 64.7786H70.5952C69.6739 64.6259 68.865 64.1407 68.296 63.4503L67.6708 62.3674C67.5171 61.9555 67.4331 61.5097 67.4331 61.0443C67.4331 58.9537 69.1278 57.259 71.2184 57.259C71.799 57.259 72.3491 57.3897 72.8408 57.6233ZM57.7637 53.2079H42.9405L50.3521 40.3706L57.7637 53.2079ZM71.0875 53.2079H62.3825L52.6615 36.3706L56.7527 29.2845C56.8488 29.1447 56.9405 29.0016 57.0276 28.8554L71.0875 53.2079ZM24.3495 66.9273C23.5925 66.666 22.7826 66.5182 21.9401 66.5041L22.7758 65.0567C23.1999 65.7605 23.7321 66.3917 24.3495 66.9273ZM46.5483 24.8779C46.5483 24.2857 46.6843 23.7252 46.9268 23.226L47.1231 22.886C47.1616 22.8192 47.2019 22.7541 47.2438 22.6906C47.9296 21.7236 49.0579 21.0926 50.3336 21.0926C52.4242 21.0926 54.1189 22.7873 54.1189 24.8779C54.1189 25.2849 54.0547 25.6768 53.9358 26.0442C53.8608 26.2524 53.7664 26.4569 53.6518 26.6553L53.3827 27.1215C52.6935 28.0566 51.5844 28.6632 50.3336 28.6632C49.1645 28.6632 48.1192 28.1333 47.4249 27.3005L47.0524 26.6554C46.7285 26.0943 46.5652 25.4845 46.5483 24.8794V24.8779ZM26.9073 68.4053C27.6603 68.6653 28.4656 68.8129 29.3033 68.8283L28.4741 70.2644C28.0512 69.5653 27.5213 68.938 26.9073 68.4053ZM77.4861 77.817C77.9118 77.9827 78.3748 78.0737 78.8592 78.0737C80.9498 78.0737 82.6445 76.379 82.6445 74.2884C82.6445 72.1978 80.9498 70.503 78.8592 70.503C76.7686 70.503 75.0739 72.1978 75.0739 74.2884C75.0739 74.7435 75.1542 75.1799 75.3015 75.5841L75.6692 76.2211C76.1 76.9672 76.7474 77.5104 77.4861 77.817ZM72.2121 70.2332C72.6318 69.5466 73.1549 68.9301 73.7598 68.4054C73.0178 68.6615 72.225 68.8086 71.4005 68.8275L72.2121 70.2332ZM78.7638 66.5036L77.9103 65.0253C77.4832 65.7417 76.9444 66.3837 76.3178 66.9273C77.0858 66.6622 77.9082 66.5139 78.7638 66.5036Z" fill="#47CCA0"/>
</g>
<defs>
<clipPath id="clip0_1637_78">
<rect width="100" height="100" rx="50" fill="white"/>
</clipPath>
</defs>
</svg>
