<svg width="55" height="55" viewBox="0 0 55 55" fill="none" xmlns="http://www.w3.org/2000/svg">
<path fill-rule="evenodd" clip-rule="evenodd" d="M11.0311 43.4557C9.25863 42.4333 8.54948 40.2774 9.29124 38.4335C9.38957 38.1829 9.51207 37.9444 9.65588 37.721L13.4336 31.1834C13.506 31.0389 13.5868 30.8992 13.6753 30.7651L24.2376 12.4864C24.5689 11.6969 25.1519 11.0053 25.9512 10.5443C26.5969 10.1718 27.3023 9.99666 27.9977 10.0001C28.6946 9.99587 29.4017 10.171 30.0488 10.5443C30.8482 11.0054 31.4313 11.697 31.7625 12.4866L46.4553 37.9134C47.5766 39.854 46.9112 42.3354 44.9689 43.4557C43.8516 44.1003 42.5551 44.154 41.4418 43.7139C40.4113 43.3186 39.5825 42.5166 39.1525 41.5045L36.5724 37.0396H19.4276L16.7605 41.6551C16.492 42.2216 16.0963 42.7161 15.6102 43.102C14.3419 44.1228 12.5261 44.3181 11.0311 43.4557ZM15.012 41.0672L15.1501 40.8282C15.2732 40.5495 15.3416 40.2412 15.3416 39.9169C15.3416 39.3319 15.119 38.7989 14.7538 38.3977C14.3282 38.2147 13.9285 37.983 13.5618 37.7094C13.4069 37.6759 13.246 37.6582 13.081 37.6582C12.2938 37.6582 11.6006 38.0603 11.1958 38.67L11.1109 38.8168C11.0606 38.9039 11.0167 38.993 10.9792 39.0835C10.8767 39.3414 10.8204 39.6226 10.8204 39.9169C10.8204 41.1644 11.8325 42.1756 13.081 42.1756C13.5978 42.1756 14.074 42.0023 14.4548 41.7108C14.6737 41.5388 14.8642 41.3229 15.012 41.0672ZM15.5822 34.6011C15.1552 34.1902 14.8895 33.6131 14.8895 32.974C14.8895 32.0044 15.5009 31.1776 16.3595 30.8573C16.5843 30.7825 16.8247 30.742 17.0746 30.742C18.3231 30.742 19.3352 31.7532 19.3352 33.0006C19.3352 33.3337 19.2631 33.6499 19.1335 33.9346L18.9155 34.3119C18.5695 34.7959 18.037 35.1378 17.4229 35.2327H17.1501C16.9226 35.2327 16.703 35.1991 16.4958 35.1366C16.2094 34.932 15.9038 34.7524 15.5822 34.6011ZM20.4762 35.2327H35.5045C35.3748 35.0358 35.2618 34.8269 35.1674 34.6082L32.918 30.7153H23.082L20.74 34.7684C20.6621 34.9294 20.5739 35.0844 20.4762 35.2327ZM20.9938 30.7153L20.7192 31.1905C20.6369 31.0254 20.5437 30.8667 20.4405 30.7153H20.9938ZM22.0379 28.9084H17.1501C17.0421 28.9084 16.9351 28.9126 16.8293 28.9208L24.3428 15.9182C24.4539 16.1419 24.585 16.354 24.7338 16.5521L26.9559 20.3975L22.0379 28.9084ZM24.1262 28.9084H31.8738L28 22.2045L24.1262 28.9084ZM35.0062 30.7153L35.2705 31.1726C35.3506 31.014 35.4408 30.8612 35.5402 30.7153H35.0062ZM39.1706 28.9206C39.0655 28.9125 38.9593 28.9084 38.8521 28.9084H33.9621L29.0441 20.3975L31.3452 16.4153C31.4578 16.2518 31.5587 16.0797 31.6467 15.9001L39.1706 28.9206ZM39.8787 30.9611C39.5841 30.8206 39.2543 30.742 38.9061 30.742C37.6576 30.742 36.6455 31.7532 36.6455 33.0006C36.6455 33.2868 36.6987 33.5604 36.7958 33.8124L37.1457 34.4178C37.4911 34.8456 37.9895 35.1449 38.5578 35.2327H38.8521C39.0663 35.2327 39.2735 35.2029 39.4699 35.1473C39.7729 34.9294 40.0975 34.7397 40.4398 34.5818C40.8552 34.1723 41.1127 33.6032 41.1127 32.974C41.1127 32.0959 40.6112 31.3348 39.8787 30.9611ZM13.081 35.8513C12.9932 35.8513 12.9061 35.8541 12.8198 35.8595L13.4281 34.8068C13.6691 35.2917 14.0041 35.7216 14.4094 36.0729C13.9931 35.9293 13.5461 35.8513 13.081 35.8513ZM25.7297 14.114C25.7297 13.757 25.8126 13.4194 25.9601 13.1193L26.0679 12.9328C26.0917 12.8917 26.1166 12.8515 26.1425 12.8125C26.5518 12.2334 27.2268 11.8553 27.9903 11.8553C29.2388 11.8553 30.2509 12.8665 30.2509 14.114C30.2509 14.3578 30.2123 14.5926 30.1407 14.8126C30.0956 14.9389 30.0385 15.0629 29.969 15.1831L29.8205 15.44C29.4096 16.0052 28.7429 16.3726 27.9903 16.3726C27.2832 16.3726 26.652 16.0483 26.2375 15.5404L26.031 15.1832C25.8369 14.8471 25.7393 14.4818 25.7297 14.1194L25.7297 14.114ZM27.9903 18.1796C28.0748 18.1796 28.1587 18.177 28.2419 18.1719L28 18.5906L27.7588 18.1731C27.8354 18.1774 27.9126 18.1796 27.9903 18.1796ZM17.0746 37.0663C17.1598 37.0663 17.2445 37.0637 17.3284 37.0585L16.7242 38.1041C16.4834 37.622 16.1496 37.1943 15.7462 36.8447C16.1625 36.9883 16.6094 37.0663 17.0746 37.0663ZM42.0788 42.0221C42.3332 42.1212 42.6101 42.1756 42.8996 42.1756C44.1481 42.1756 45.1603 41.1644 45.1603 39.9169C45.1603 38.6695 44.1481 37.6582 42.8996 37.6582C42.7347 37.6582 42.5738 37.6759 42.4189 37.7094C42.0522 37.983 41.6525 38.2147 41.2268 38.3977C40.8616 38.7989 40.639 39.3319 40.639 39.9169C40.639 40.1973 40.6902 40.4657 40.7836 40.7135L40.988 41.0672C41.2464 41.5144 41.6352 41.8394 42.0788 42.0221ZM39.2654 38.0862C39.5055 37.6114 39.836 37.19 40.2344 36.8447C39.8181 36.9883 39.3712 37.0663 38.9061 37.0663C38.8276 37.0663 38.7497 37.0641 38.6723 37.0597L39.2654 38.0862ZM43.181 35.8609L42.5615 34.7888C42.3199 35.281 41.9816 35.7173 41.5714 36.0728C41.9876 35.9293 42.4345 35.8513 42.8996 35.8513C42.9942 35.8513 43.088 35.8545 43.181 35.8609Z" fill="black"/>
<rect x="1" y="1" width="53" height="53" rx="26.5" stroke="black" stroke-width="2"/>
</svg>
