<svg width="153" height="50" viewBox="0 0 153 50" fill="none" xmlns="http://www.w3.org/2000/svg">
    <style type="text/css">
        .std0 {
            fill: currentColor
        }
    </style>
    <path class="std0" fill-rule="evenodd" clip-rule="evenodd"
        d="M6.3552 43.8537C4.35511 42.698 3.5558 40.2603 4.39535 38.1766C4.50577 37.8957 4.64306 37.6283 4.80404 37.3776L9.06463 29.9923C9.14605 29.8296 9.23685 29.6723 9.33632 29.5213L21.2465 8.87602C21.6201 7.98434 22.2775 7.20327 23.1788 6.68253C23.9074 6.26153 24.7036 6.06372 25.4883 6.0679C26.2734 6.06348 27.0701 6.26127 27.7992 6.68252C28.7004 7.20328 29.3579 7.98437 29.7314 8.87609L46.2987 37.594C47.5631 39.7857 46.8128 42.5883 44.6227 43.8537C43.3647 44.5806 41.9052 44.6421 40.6512 44.1474C39.4865 43.7017 38.5498 42.7948 38.0641 41.6498L35.155 36.6072H15.8229L12.8159 41.8195C12.5119 42.4621 12.0632 43.0228 11.512 43.4594C10.0821 44.6077 8.03839 44.8262 6.3552 43.8537ZM11.2855 41.4111L11.4552 41.117C11.6288 40.7327 11.7255 40.3061 11.7255 39.8569C11.7255 39.0216 11.3912 38.2644 10.8492 37.7121C10.3382 37.5023 9.86196 37.2253 9.43131 36.8921C9.18691 36.8292 8.9307 36.7957 8.66667 36.7957C7.59581 36.7957 6.65347 37.3464 6.10701 38.1803L6.00374 38.3593C5.9346 38.4791 5.8745 38.6017 5.82324 38.7263C5.68425 39.0761 5.60784 39.4576 5.60784 39.8569C5.60784 41.5476 6.97733 42.9181 8.66667 42.9181C9.36905 42.9181 10.0161 42.6812 10.5325 42.2829C10.8283 42.0497 11.0857 41.7574 11.2855 41.4111ZM13.6984 36.6072H14.0569L13.0204 38.4038C12.9934 38.3226 12.9641 38.2425 12.9328 38.1634C12.6591 37.4734 12.2231 36.8656 11.6719 36.3871C12.1413 36.5492 12.6453 36.6373 13.1698 36.6373C13.3486 36.6373 13.525 36.6271 13.6984 36.6072ZM11.1989 34.2819C10.5829 33.7219 10.1961 32.9138 10.1961 32.0153C10.1961 30.6988 11.0265 29.5764 12.1918 29.1441C12.4988 29.0404 12.8278 28.9842 13.1698 28.9842C14.8591 28.9842 16.2286 30.3548 16.2286 32.0455C16.2286 32.5055 16.1272 32.9418 15.9456 33.3332L15.6747 33.8028C15.1995 34.48 14.4571 34.9557 13.6008 35.0765H13.2549C12.9157 35.0765 12.5894 35.0213 12.2845 34.9193C11.9473 34.6714 11.5838 34.4573 11.1989 34.2819ZM16.7059 35.0765H34.272L34.1038 34.7849C33.8922 34.5005 33.7127 34.1907 33.5707 33.8609L30.74 28.9541H20.2379L17.303 34.0414C17.2052 34.2439 17.093 34.4381 16.9677 34.6227L16.7059 35.0765ZM18.4719 28.9541L17.5247 30.596C17.3203 29.9805 16.9892 29.4229 16.5625 28.9541H18.4719ZM19.3549 27.4235H13.2549C12.9092 27.4235 12.5725 27.4617 12.2487 27.5343L21.1205 12.1558C21.2779 12.6326 21.5112 13.0749 21.8062 13.4682L24.606 18.3213L19.3549 27.4235ZM21.1209 27.4235H29.857L25.489 19.8519L21.1209 27.4235ZM32.506 28.9541L33.4395 30.5721C33.6445 29.9661 33.9725 29.4169 34.3937 28.9541H32.506ZM38.7289 27.5336C38.4059 27.4615 38.0702 27.4235 37.7255 27.4235H31.623L26.372 18.3213L29.2606 13.3141C29.5049 12.9587 29.7005 12.5672 29.8378 12.1492L29.8437 12.132L38.7289 27.5336ZM36.9211 36.6072H37.2578C37.4312 36.6271 37.6076 36.6373 37.7864 36.6373C38.3109 36.6373 38.8148 36.5492 39.2842 36.3871C38.733 36.8656 38.297 37.4734 38.0233 38.1634C37.9951 38.2347 37.9685 38.3069 37.9437 38.3799L36.9211 36.6072ZM39.1099 29.2849C38.7094 29.0922 38.2605 28.9842 37.7864 28.9842C36.0971 28.9842 34.7276 30.3548 34.7276 32.0455C34.7276 32.4476 34.8051 32.8316 34.9459 33.1834L35.379 33.9342C35.8552 34.5412 36.5556 34.9637 37.3554 35.0765H37.7255C38.0486 35.0765 38.36 35.0264 38.6524 34.9335C39.0088 34.6693 39.3949 34.443 39.8048 34.2605C40.4073 33.7014 40.7843 32.9024 40.7843 32.0153C40.7843 30.8233 40.1036 29.7905 39.1099 29.2849ZM7.9958 35.3138C7.9077 35.3267 7.82042 35.3421 7.73402 35.36L8.81305 33.4896C8.84091 33.5738 8.87114 33.657 8.90366 33.739C9.17737 34.429 9.61337 35.0368 10.1645 35.5153C9.6951 35.3532 9.19116 35.2651 8.66667 35.2651C8.43878 35.2651 8.21478 35.2817 7.9958 35.3138ZM22.4192 10.7143C22.4192 10.2244 22.5342 9.7614 22.7387 9.35082L22.8689 9.12511C22.9021 9.06758 22.9368 9.01154 22.9731 8.95702C23.5264 8.16847 24.4421 7.65308 25.4781 7.65308C27.1674 7.65308 28.5369 9.02363 28.5369 10.7143C28.5369 11.046 28.4842 11.3654 28.3867 11.6645C28.325 11.8392 28.2465 12.0107 28.1506 12.1769L27.97 12.49C27.4154 13.2681 26.5059 13.7755 25.4781 13.7755C24.5062 13.7755 23.6401 13.3219 23.0798 12.6146L22.8273 12.1769C22.5642 11.7208 22.4321 11.225 22.4193 10.7332L22.4192 10.7143ZM25.4781 15.3061C25.7934 15.3061 26.1013 15.2743 26.3987 15.2137L25.489 16.7907L24.5821 15.2186C24.8718 15.276 25.1714 15.3061 25.4781 15.3061ZM41.1842 42.7122C41.527 42.8452 41.8997 42.9181 42.2895 42.9181C43.9788 42.9181 45.3483 41.5476 45.3483 39.8569C45.3483 38.1662 43.9788 36.7957 42.2895 36.7957C42.0255 36.7957 41.7693 36.8292 41.5249 36.8921C41.0942 37.2253 40.6179 37.5023 40.1069 37.7121C39.5649 38.2645 39.2306 39.0216 39.2306 39.8569C39.2306 40.252 39.3054 40.6295 39.4416 40.9762L39.6924 41.4111C40.0452 42.0226 40.5775 42.4657 41.1842 42.7122ZM43.2469 35.3652L42.151 33.4656C42.121 33.558 42.0881 33.6492 42.0525 33.739C41.7788 34.429 41.3428 35.0368 40.7917 35.5153C41.2611 35.3531 41.765 35.2651 42.2895 35.2651C42.5174 35.2651 42.7414 35.2817 42.9604 35.3138C43.0569 35.328 43.1524 35.3451 43.2469 35.3652Z"
         />
    <path class="std0"
        d="M62.3634 31.6327C63.1111 31.6327 63.6956 31.483 64.1171 31.1837C64.5521 30.8844 64.7696 30.4626 64.7696 29.9184C64.7696 29.3741 64.5521 28.9524 64.1171 28.6531C63.6956 28.3401 63.1179 28.1837 62.3838 28.1837C61.7176 28.1837 61.1874 28.3401 60.7932 28.6531C60.4125 28.9524 60.2222 29.3741 60.2222 29.9184C60.2222 30.4762 60.4125 30.9048 60.7932 31.2041C61.1738 31.4898 61.6972 31.6327 62.3634 31.6327Z"
         />
    <path class="std0"
        d="M99.7495 31.6327C100.497 31.6327 101.082 31.483 101.503 31.1837C101.938 30.8844 102.156 30.4626 102.156 29.9184C102.156 29.3741 101.938 28.9524 101.503 28.6531C101.082 28.3401 100.504 28.1837 99.7699 28.1837C99.1038 28.1837 98.5736 28.3401 98.1793 28.6531C97.7987 28.9524 97.6083 29.3741 97.6083 29.9184C97.6083 30.4762 97.7987 30.9048 98.1793 31.2041C98.56 31.4898 99.0834 31.6327 99.7495 31.6327Z"
         />
    <path class="std0"
        d="M122.357 31.6327C123.105 31.6327 123.689 31.483 124.111 31.1837C124.546 30.8844 124.763 30.4626 124.763 29.9184C124.763 29.3741 124.546 28.9524 124.111 28.6531C123.689 28.3401 123.111 28.1837 122.377 28.1837C121.711 28.1837 121.181 28.3401 120.787 28.6531C120.406 28.9524 120.216 29.3741 120.216 29.9184C120.216 30.4762 120.406 30.9048 120.787 31.2041C121.167 31.4898 121.691 31.6327 122.357 31.6327Z"
         />
    <path class="std0"
        d="M139.946 31.6327C140.694 31.6327 141.278 31.483 141.7 31.1837C142.135 30.8844 142.352 30.4626 142.352 29.9184C142.352 29.3741 142.135 28.9524 141.7 28.6531C141.278 28.3401 140.7 28.1837 139.966 28.1837C139.3 28.1837 138.77 28.3401 138.376 28.6531C137.995 28.9524 137.805 29.3741 137.805 29.9184C137.805 30.4762 137.995 30.9048 138.376 31.2041C138.756 31.4898 139.28 31.6327 139.946 31.6327Z"
         />
    <path class="std0" fill-rule="evenodd" clip-rule="evenodd"
        d="M152.941 0V50H0V0H152.941ZM49.9608 48.4694V1.53061H1.52941V48.4694H49.9608ZM61.8332 33.3469C61.1126 33.3469 60.4601 33.2109 59.8755 32.9388C59.2909 32.6667 58.8287 32.2721 58.4889 31.7551C58.149 31.2381 57.979 30.6327 57.979 29.9388C57.979 29.2313 58.1558 28.619 58.5092 28.102C58.8763 27.5714 59.3725 27.1701 59.9979 26.898C60.6232 26.6122 61.3234 26.4694 62.0983 26.4694C63.3354 26.4694 64.3754 26.8912 65.2183 27.7347L65.3202 27.6327C65.0755 27.3878 64.8784 27.2109 64.7289 27.102V26.5306C64.7289 25.932 64.5249 25.4626 64.1171 25.1224C63.7092 24.7687 63.1383 24.5918 62.4041 24.5918C61.7516 24.5918 61.1806 24.7211 60.6912 24.9796C60.2018 25.2245 59.8075 25.5918 59.5085 26.0816C59.2366 25.9864 59.0055 25.8367 58.8151 25.6327C58.6384 25.4286 58.55 25.2109 58.55 24.9796C58.55 24.585 58.7336 24.2177 59.1006 23.8776C59.4677 23.5374 59.9571 23.2721 60.5689 23.0816C61.1942 22.8776 61.8672 22.7755 62.5877 22.7755C63.9743 22.7755 65.0483 23.1088 65.8096 23.7755C66.5845 24.4286 66.972 25.3265 66.972 26.4694V31.7551C66.972 32.3129 66.8021 32.7211 66.4622 32.9796C66.1223 33.2245 65.5785 33.3469 64.8308 33.3469V32.4694C65.0755 32.2245 65.2387 32.0476 65.3202 31.9388L65.2183 31.8571C64.7832 32.3469 64.2938 32.7211 63.75 32.9796C63.2198 33.2245 62.5809 33.3469 61.8332 33.3469ZM73.5263 33.3469C72.6562 33.3469 71.8813 33.1905 71.2016 32.8776C70.5355 32.5646 70.0121 32.1293 69.6314 31.5714C69.2644 31 69.0808 30.3605 69.0808 29.6531V26.6327C69.0808 25.8844 69.2644 25.2177 69.6314 24.6327C70.0121 24.0476 70.5355 23.5918 71.2016 23.2653C71.8678 22.9388 72.6291 22.7755 73.4855 22.7755C74.2876 22.7755 75.0014 22.8912 75.6267 23.1224C76.2521 23.3537 76.7347 23.6803 77.0746 24.102C77.428 24.5102 77.6048 24.9796 77.6048 25.5102C77.6048 25.932 77.428 26.2653 77.0746 26.5102C76.7347 26.7415 76.2861 26.8367 75.7287 26.7959C75.7287 26.1973 75.5247 25.7075 75.1169 25.3265C74.7091 24.9456 74.1857 24.7551 73.5467 24.7551C72.9078 24.7551 72.3844 24.9388 71.9765 25.3061C71.5687 25.6735 71.3648 26.1497 71.3648 26.7347V29.5102C71.3648 30.0544 71.5687 30.4966 71.9765 30.8367C72.3979 31.1769 72.9349 31.3469 73.5875 31.3469C74.2264 31.3469 74.7498 31.1633 75.1577 30.7959C75.5655 30.415 75.7695 29.932 75.7695 29.3469L76.0549 29.3265C76.5308 29.3265 76.9182 29.449 77.2173 29.6939C77.5164 29.9252 77.6659 30.2313 77.6659 30.6122C77.6659 31.1429 77.4892 31.619 77.1357 32.0408C76.7959 32.449 76.3064 32.7687 75.6675 33C75.0421 33.2313 74.3284 33.3469 73.5263 33.3469ZM79.8606 24.5918C79.8606 23.381 80.5812 22.7755 82.0222 22.7755V24.0204C81.8047 24.2653 81.6483 24.4762 81.5532 24.6531L81.6551 24.7347C82.0902 24.0952 82.5456 23.6122 83.0214 23.2857C83.4972 22.9456 84.0614 22.7755 84.714 22.7755C85.8967 22.7755 86.726 23.3605 87.2018 24.5306C87.5553 23.9728 87.9903 23.5442 88.5069 23.2449C89.0235 22.932 89.6217 22.7755 90.3014 22.7755C91.2395 22.7755 91.9736 23.1088 92.5038 23.7755C93.0476 24.4422 93.3195 25.2925 93.3195 26.3265V31.8776C93.3195 32.3946 93.1359 32.7687 92.7689 33C92.4018 33.2313 91.8376 33.3469 91.0763 33.3469V26.5102C91.0763 25.9524 90.954 25.517 90.7093 25.2041C90.4646 24.8775 90.0907 24.7143 89.5877 24.7143C89.0575 24.7143 88.6089 24.898 88.2418 25.2653C87.8883 25.619 87.7116 26.1497 87.7116 26.8571V31.8776C87.7116 32.3946 87.5281 32.7687 87.161 33C86.794 33.2313 86.2366 33.3469 85.4889 33.3469V26.5102C85.4889 25.3129 84.9995 24.7143 84.0206 24.7143C83.4361 24.7143 82.967 24.9184 82.6136 25.3265C82.2737 25.7347 82.1038 26.2653 82.1038 26.9184V31.8776C82.1038 32.3946 81.9202 32.7687 81.5532 33C81.1861 33.2313 80.6219 33.3469 79.8606 33.3469V24.5918ZM99.2193 33.3469C98.4988 33.3469 97.8462 33.2109 97.2617 32.9388C96.6771 32.6667 96.2149 32.2721 95.875 31.7551C95.5351 31.2381 95.3652 30.6327 95.3652 29.9388C95.3652 29.2313 95.5419 28.619 95.8954 28.102C96.2625 27.5714 96.7587 27.1701 97.384 26.898C98.0094 26.6122 98.7095 26.4694 99.4844 26.4694C100.722 26.4694 101.762 26.8912 102.604 27.7347L102.706 27.6327C102.462 27.3878 102.265 27.2109 102.115 27.102V26.5306C102.115 25.932 101.911 25.4626 101.503 25.1224C101.095 24.7687 100.524 24.5918 99.7903 24.5918C99.1377 24.5918 98.5668 24.7211 98.0774 24.9796C97.5879 25.2245 97.1937 25.5918 96.8946 26.0816C96.6227 25.9864 96.3916 25.8367 96.2013 25.6327C96.0245 25.4286 95.9362 25.2109 95.9362 24.9796C95.9362 24.585 96.1197 24.2177 96.4868 23.8776C96.8538 23.5374 97.3432 23.2721 97.955 23.0816C98.5804 22.8776 99.2533 22.7755 99.9738 22.7755C101.361 22.7755 102.434 23.1088 103.196 23.7755C103.971 24.4286 104.358 25.3265 104.358 26.4694V31.7551C104.358 32.3129 104.188 32.7211 103.848 32.9796C103.508 33.2245 102.965 33.3469 102.217 33.3469V32.4694C102.462 32.2245 102.625 32.0476 102.706 31.9388L102.604 31.8571C102.169 32.3469 101.68 32.7211 101.136 32.9796C100.606 33.2245 99.967 33.3469 99.2193 33.3469ZM106.929 20.5102C106.929 19.9252 107.119 19.4762 107.5 19.1633C107.894 18.8503 108.465 18.6939 109.213 18.6939V24.0204C109.009 24.2517 108.846 24.4626 108.723 24.6531L108.846 24.7347C109.281 24.1224 109.797 23.6463 110.396 23.3061C111.007 22.9524 111.694 22.7755 112.455 22.7755C113.162 22.7755 113.781 22.932 114.311 23.2449C114.841 23.5442 115.249 23.966 115.534 24.5102C115.833 25.0544 115.983 25.6599 115.983 26.3265V31.8776C115.983 32.3946 115.793 32.7687 115.412 33C115.031 33.2313 114.46 33.3469 113.699 33.3469V26.6327C113.699 26.0748 113.529 25.6258 113.189 25.2857C112.863 24.932 112.38 24.7551 111.741 24.7551C111.034 24.7551 110.436 24.9796 109.947 25.4286C109.457 25.8639 109.213 26.4014 109.213 27.0408V31.8776C109.213 32.3946 109.022 32.7687 108.642 33C108.261 33.2313 107.69 33.3469 106.929 33.3469V20.5102ZM121.827 33.3469C121.106 33.3469 120.454 33.2109 119.869 32.9388C119.285 32.6667 118.822 32.2721 118.482 31.7551C118.143 31.2381 117.973 30.6327 117.973 29.9388C117.973 29.2313 118.149 28.619 118.503 28.102C118.87 27.5714 119.366 27.1701 119.991 26.898C120.617 26.6122 121.317 26.4694 122.092 26.4694C123.329 26.4694 124.369 26.8912 125.212 27.7347L125.314 27.6327C125.069 27.3878 124.872 27.2109 124.722 27.102V26.5306C124.722 25.932 124.519 25.4626 124.111 25.1224C123.703 24.7687 123.132 24.5918 122.398 24.5918C121.745 24.5918 121.174 24.7211 120.685 24.9796C120.195 25.2245 119.801 25.5918 119.502 26.0816C119.23 25.9864 118.999 25.8367 118.809 25.6327C118.632 25.4286 118.544 25.2109 118.544 24.9796C118.544 24.585 118.727 24.2177 119.094 23.8776C119.461 23.5374 119.951 23.2721 120.562 23.0816C121.188 22.8776 121.861 22.7755 122.581 22.7755C123.968 22.7755 125.042 23.1088 125.803 23.7755C126.578 24.4286 126.966 25.3265 126.966 26.4694V31.7551C126.966 32.3129 126.796 32.7211 126.456 32.9796C126.116 33.2245 125.572 33.3469 124.824 33.3469V32.4694C125.069 32.2245 125.232 32.0476 125.314 31.9388L125.212 31.8571C124.777 32.3469 124.287 32.7211 123.744 32.9796C123.213 33.2245 122.574 33.3469 121.827 33.3469ZM131.783 21.6122C131.334 21.6122 130.96 21.4762 130.661 21.2041C130.362 20.9184 130.212 20.5646 130.212 20.1429C130.212 19.7211 130.362 19.3741 130.661 19.102C130.96 18.8299 131.334 18.6939 131.783 18.6939C132.231 18.6939 132.605 18.8299 132.904 19.102C133.203 19.3741 133.353 19.7211 133.353 20.1429C133.353 20.5646 133.203 20.9184 132.904 21.2041C132.605 21.4762 132.231 21.6122 131.783 21.6122ZM129.417 37.4286C128.71 37.4286 128.132 37.2585 127.684 36.9184C127.249 36.5918 127.031 36.1905 127.031 35.7143C127.031 35.2925 127.188 34.9932 127.5 34.8163C127.894 35.2381 128.438 35.449 129.132 35.449C129.635 35.449 130.008 35.3129 130.253 35.0408C130.511 34.7687 130.641 34.381 130.641 33.8776V24.2449C130.641 23.7279 130.831 23.3537 131.212 23.1224C131.592 22.8912 132.163 22.7755 132.925 22.7755V33.9184C132.925 34.5714 132.782 35.1633 132.496 35.6939C132.211 36.2381 131.803 36.6599 131.273 36.9592C130.743 37.2721 130.124 37.4286 129.417 37.4286ZM139.416 33.3469C138.695 33.3469 138.043 33.2109 137.458 32.9388C136.874 32.6667 136.411 32.2721 136.071 31.7551C135.732 31.2381 135.562 30.6327 135.562 29.9388C135.562 29.2313 135.738 28.619 136.092 28.102C136.459 27.5714 136.955 27.1701 137.58 26.898C138.206 26.6122 138.906 26.4694 139.681 26.4694C140.918 26.4694 141.958 26.8912 142.801 27.7347L142.903 27.6327C142.658 27.3878 142.461 27.2109 142.311 27.102V26.5306C142.311 25.932 142.108 25.4626 141.7 25.1224C141.292 24.7687 140.721 24.5918 139.987 24.5918C139.334 24.5918 138.763 24.7211 138.274 24.9796C137.784 25.2245 137.39 25.5918 137.091 26.0816C136.819 25.9864 136.588 25.8367 136.398 25.6327C136.221 25.4286 136.133 25.2109 136.133 24.9796C136.133 24.585 136.316 24.2177 136.683 23.8776C137.05 23.5374 137.54 23.2721 138.151 23.0816C138.777 22.8776 139.45 22.7755 140.17 22.7755C141.557 22.7755 142.631 23.1088 143.392 23.7755C144.167 24.4286 144.555 25.3265 144.555 26.4694V31.7551C144.555 32.3129 144.385 32.7211 144.045 32.9796C143.705 33.2245 143.161 33.3469 142.413 33.3469V32.4694C142.658 32.2245 142.821 32.0476 142.903 31.9388L142.801 31.8571C142.366 32.3469 141.876 32.7211 141.333 32.9796C140.802 33.2245 140.163 33.3469 139.416 33.3469Z"
         />
</svg>